<svg xmlns="http://www.w3.org/2000/svg" width="150.815" height="135" viewBox="0 0 150.815 135"><g transform="translate(0 -24.835)"><g transform="translate(0 24.835)"><g transform="translate(0 0)"><path d="M137.959,126.51a15.283,15.283,0,0,0,12.856-15.072V96.156a2.547,2.547,0,0,0-2.547-2.547H76.9a2.547,2.547,0,0,0-2.547,2.547V119.08H69.305V57.948a2.513,2.513,0,0,0-.206-1L61.664,39.609V27.382a2.547,2.547,0,0,0-2.547-2.547H13.267a2.547,2.547,0,0,0-2.547,2.547V39.609L3.285,56.955a2.515,2.515,0,0,0-.206.993v87.5a8.052,8.052,0,0,0,4.985,14.384H132.984a2.547,2.547,0,0,0,2.292-1.409l4.376-8.78h11.162v-5.094H127.8A25.472,25.472,0,0,0,137.959,126.51Zm.12-27.807h7.642v12.736a10.189,10.189,0,0,1-7.642,9.827ZM62.9,55.4h-7.56l3.78-8.816ZM64.211,60.5V119.08H54.022V60.5Zm-48.4-30.566H56.569v7.642H15.815Zm-.869,12.736H55.255L49.8,55.4H9.487ZM8.173,60.5H48.928V119.08H43.515a7.918,7.918,0,0,0-7.557,5.347l-12.395,3.541a8.1,8.1,0,0,0-5.772,6.938l-9.618,6.87Zm-.11,94.245a2.978,2.978,0,0,1-1.73-5.4l12.2-8.714,2.822,14.111Zm18.485,0L22.863,136.3a2.99,2.99,0,0,1,2.1-3.441l10.769-3.077,3.378,24.955Zm17.7,0-3.683-27.2a2.972,2.972,0,0,1,2.554-3.339,3,3,0,0,1,.393-.026H74.359a25.472,25.472,0,0,0,10.28,20.377H64.211v5.094H75.373l2.547,5.094Zm89.706-5.094-2.547,5.094h-47.8l-2.547-5.094Zm-21.394-5.094H99.871a20.446,20.446,0,0,1-20.421-20.421V98.7h53.534v25.428A20.443,20.443,0,0,1,112.564,144.552Z" transform="translate(0 -24.835)" fill="#fff"/></g></g><g transform="translate(84.545 119.08)"><path d="M283.364,336.118a12.751,12.751,0,0,1-12.736-12.736v-2.547h-5.094v2.547a17.853,17.853,0,0,0,17.83,17.83h2.547v-5.094Z" transform="translate(-265.534 -320.835)" fill="#fff"/></g><g transform="translate(84.545 108.892)"><rect width="5.094" height="5.094" fill="#fff"/></g><g transform="translate(84.588 42.665)"><g transform="translate(0 0)"><path d="M315.34,101.212H284.774a3.821,3.821,0,1,1,0-7.642h11.462a12.751,12.751,0,0,0,12.736-12.736h-5.094a7.641,7.641,0,0,1-7.641,7.642H284.774a8.915,8.915,0,1,0,0,17.83H315.34a3.821,3.821,0,1,1,0,7.642H278.406a12.751,12.751,0,0,0-12.736,12.736h5.094a7.641,7.641,0,0,1,7.641-7.641H315.34a8.915,8.915,0,1,0,0-17.83Z" transform="translate(-265.67 -80.835)" fill="#fff"/></g></g><g transform="translate(18.362 73.231)"><path d="M67.859,176.835a10.189,10.189,0,1,0,10.189,10.189A10.189,10.189,0,0,0,67.859,176.835Zm0,15.283a5.094,5.094,0,1,1,5.094-5.094A5.094,5.094,0,0,1,67.859,192.118Z" transform="translate(-57.67 -176.835)" fill="#fff"/></g><g transform="translate(18.362 98.703)"><g transform="translate(0 0)"><rect width="20.377" height="5.094" fill="#fff"/></g></g><g transform="translate(18.362 108.892)"><rect width="20.377" height="5.094" fill="#fff"/></g></g></svg>