<svg xmlns="http://www.w3.org/2000/svg" width="61.953" height="61.953" viewBox="0 0 61.953 61.953"><g transform="translate(-0.001)"><path d="M61.954,19.36C61.954,3.944,41.668,0,30.978,0S0,3.944,0,19.36A11.318,11.318,0,0,0,3.873,27.5V56.145a5.809,5.809,0,0,0,5.808,5.808H52.274a5.809,5.809,0,0,0,5.808-5.808V27.5A11.317,11.317,0,0,0,61.954,19.36Z" fill="#f2d27e"/><path d="M61.954,19.36C61.954,3.944,41.668,0,30.978,0S0,3.944,0,19.36A11.318,11.318,0,0,0,3.873,27.5V56.145a5.809,5.809,0,0,0,5.808,5.808H52.274a5.809,5.809,0,0,0,5.808-5.808V27.5A11.317,11.317,0,0,0,61.954,19.36Zm-5.723,5.9-1.053.873V56.145a2.908,2.908,0,0,1-2.9,2.9H9.681a2.908,2.908,0,0,1-2.9-2.9V26.136l-1.053-.871a8.47,8.47,0,0,1-2.819-5.9C2.905,6.342,21.268,2.9,30.978,2.9S59.05,6.343,59.05,19.36A8.463,8.463,0,0,1,56.231,25.263Z" fill="#f4b459"/><path d="M52.311,181.2,31.088,203.558a5.746,5.746,0,0,0,3.038.879h21.3L65.1,194Z" transform="translate(-24.444 -142.484)" fill="#ceb36b"/><path d="M141.153,137.071l7.884,7.885a3.716,3.716,0,0,1,0,5.256l-7.884,7.884a3.718,3.718,0,0,1-5.258,0l-7.884-7.884a3.72,3.72,0,0,1,0-5.256l7.884-7.885A3.722,3.722,0,0,1,141.153,137.071Z" transform="translate(-99.802 -106.927)" fill="#fff"/><path d="M34.126,275.708a2.828,2.828,0,0,1-.951-.174l-2.087,2.2a5.746,5.746,0,0,0,3.038.879h21.3l2.695-2.9Z" transform="translate(-24.444 -216.659)" fill="#d0994b"/></g></svg>