<svg xmlns="http://www.w3.org/2000/svg" width="61.115" height="62.013" viewBox="0 0 61.115 62.013"><g transform="translate(-3.706)"><path d="M214.033,341.58l-6.708,2.686-6.708-2.686a6.708,6.708,0,0,1,4.159-6.2v-9.257h5.1v9.257A6.708,6.708,0,0,1,214.033,341.58Z" transform="translate(-173.061 -286.619)" fill="#98e1e2"/><g transform="translate(17.779 36.813)"><path d="M151.268,456.228a4.5,4.5,0,0,0-3.777-2.455H125.267a4.5,4.5,0,0,0-3.777,2.455l-1.6,3.589h32.97Z" transform="translate(-119.894 -435.625)" fill="#74d1d2"/><path d="M178.693,305.282a4.03,4.03,0,0,0,4.03,4.03H193.39a4.03,4.03,0,0,0,4.03-4.03l-9.363-1.343Z" transform="translate(-171.571 -303.939)" fill="#74d1d2"/></g><path d="M98.579,112.926H48.255V92.659l25.161-4.528,25.163,4.528Z" transform="translate(-39.153 -77.457)" fill="#ef5352"/><path d="M62.807,281.759H5.721a2.015,2.015,0,1,0,0,4.03H62.806a2.015,2.015,0,0,0,0-4.03Z" transform="translate(0 -247.632)" fill="#c8feff"/><g transform="translate(16.589)"><path d="M343.452,18.558v.011l-4.03,2.686-4.03-2.686v-.011c0-2.224,4.03-4.03,4.03-4.03S343.452,16.333,343.452,18.558Z" transform="translate(-308.102 -12.768)" fill="#ef5352"/><path d="M219.773,5.789V5.8l-5.79,2.686L208.192,5.8V5.789c0-3.2,5.79-5.789,5.79-5.789S219.773,2.592,219.773,5.789Z" transform="translate(-196.308)" fill="#ef5352"/><path d="M118.129,18.558v.011l-4.03,2.686-4.03-2.686v-.011c0-2.224,4.03-4.03,4.03-4.03S118.129,16.333,118.129,18.558Z" transform="translate(-110.07 -12.768)" fill="#ef5352"/></g><path d="M93.206,47.886H53.628a5.389,5.389,0,0,0-5.373,5.373v4.03c3.386,0,4.038,2.3,6.372,3.189v5.546a2.015,2.015,0,1,0,4.03,0V60.477c2.333-.886,2.985-3.189,6.372-3.189,4.193,0,4.193,3.531,8.387,3.531s4.193-3.531,8.387-3.531S86,60.82,90.191,60.82s4.195-3.531,8.388-3.531v-4.03A5.389,5.389,0,0,0,93.206,47.886Z" transform="translate(-39.153 -42.086)" fill="#8e4238"/><g transform="translate(47.117 23.875)"><circle cx="1.007" cy="1.007" r="1.007" transform="translate(0 4.03)" fill="#700d00"/><circle cx="1.007" cy="1.007" r="1.007" transform="translate(4.03)" fill="#700d00"/></g><path d="M128.75,497.381H90.408a1.007,1.007,0,1,1,0-2.015H128.75a1.007,1.007,0,0,1,0,2.015Z" transform="translate(-75.316 -435.368)" fill="#98e1e2"/></g></svg>