<svg xmlns="http://www.w3.org/2000/svg" width="62.513" height="62.513" viewBox="0 0 62.513 62.513"><path d="M25.683,0A25.687,25.687,0,0,0,13.969,48.545L48.545,13.969A25.68,25.68,0,0,0,25.683,0Z" fill="#dc774e"/><path d="M128.7,94.125A25.692,25.692,0,1,1,116.987,91.3,25.681,25.681,0,0,1,128.7,94.125Z" transform="translate(-80.156 -80.156)" fill="#f7cd95"/><g transform="translate(7.202 15.309)"><path d="M63.68,126.186a2.748,2.748,0,1,1-3.885,0A2.749,2.749,0,0,1,63.68,126.186Z" transform="translate(-58.99 -125.381)" fill="#8e4238"/><path d="M359.066,371.318a2.748,2.748,0,1,1-2.748,2.748A2.748,2.748,0,0,1,359.066,371.318Z" transform="translate(-320.015 -341.29)" fill="#8e4238"/><path d="M301.308,175.183a5.5,5.5,0,1,1-5.5,5.5A5.5,5.5,0,0,1,301.308,175.183Z" transform="translate(-266.897 -169.102)" fill="#8e4238"/></g><path d="M152.961,230.659a2.748,2.748,0,1,1-2.748,2.748A2.747,2.747,0,0,1,152.961,230.659Z" transform="translate(-131.873 -202.496)" fill="#b75548"/><circle cx="5.496" cy="5.496" r="5.496" transform="translate(23.777 41.279)" fill="#8e4238"/><path d="M410.829,291.075a2.748,2.748,0,1,1-2.748,2.748A2.748,2.748,0,0,1,410.829,291.075Z" transform="translate(-358.256 -255.536)" fill="#b75548"/><g transform="translate(24.163 6.464)"><circle cx="1.03" cy="1.03" r="1.03" fill="#700d00"/><circle cx="1.03" cy="1.03" r="1.03" transform="translate(5.445 19.39)" fill="#700d00"/><circle cx="1.03" cy="1.03" r="1.03" transform="translate(14.015 32.349)" fill="#700d00"/></g></svg>