<svg xmlns="http://www.w3.org/2000/svg" width="70.328" height="71.891" viewBox="0 0 70.328 71.891"><g transform="translate(-5.565)"><path d="M96.155,36.682a2.341,2.341,0,0,1-2.341,2.342h-.78v1.561H36.859V39.023h-.78a2.342,2.342,0,0,1,0-4.683H71.232a7.126,7.126,0,0,1-.044-.781,7.022,7.022,0,1,1,14.044,0,7.1,7.1,0,0,1-.044.781h8.627A2.341,2.341,0,0,1,96.155,36.682ZM91.473,21.853a4.683,4.683,0,1,0,4.681,4.683A4.682,4.682,0,0,0,91.473,21.853Zm-3.9-9.366a2.341,2.341,0,1,0-2.341-2.341A2.341,2.341,0,0,0,87.572,12.487Zm6.242-7.8a2.341,2.341,0,1,0-2.341-2.341A2.341,2.341,0,0,0,93.814,4.683Z" transform="translate(-24.217)" fill="#d19b3f"/><path d="M351.147,176.118A3.121,3.121,0,1,1,348.026,173,3.121,3.121,0,0,1,351.147,176.118Zm8.582-9.366a2.341,2.341,0,1,0,2.341,2.342,2.341,2.341,0,0,0-2.341-2.342Z" transform="translate(-291.692 -143.338)" fill="#e9b84c"/><path d="M5.565,277.813v2.207a4.94,4.94,0,0,0,4.933,4.935h2.143v10.2a6.089,6.089,0,0,0,6.07,6.072H62.746a6.089,6.089,0,0,0,6.07-6.072v-10.2H70.96a4.94,4.94,0,0,0,4.933-4.935v-2.207a4.94,4.94,0,0,0-4.933-4.935H68.817V266.8H12.642v6.075H10.5A4.94,4.94,0,0,0,5.565,277.813Zm63.252,4.02V276H70.96a1.815,1.815,0,0,1,1.813,1.813v2.207a1.815,1.815,0,0,1-1.813,1.813H68.817Zm-60.131-4.02A1.815,1.815,0,0,1,10.5,276h2.143v5.834H10.5a1.815,1.815,0,0,1-1.812-1.813v-2.207h0Z" transform="translate(0 -229.34)" fill="#8c9096"/><g transform="translate(5.565 14.505)"><path d="M5.565,277.813v2.207a4.94,4.94,0,0,0,4.933,4.935h2.143v10.2a6.089,6.089,0,0,0,6.07,6.072H62.746a6.089,6.089,0,0,0,6.07-6.072v-10.2H70.96a4.94,4.94,0,0,0,4.933-4.935v-2.207a4.94,4.94,0,0,0-4.933-4.935H68.817V266.8H31.367v24.975a3.121,3.121,0,0,1-3.121,3.122H22a3.121,3.121,0,0,1-3.121-3.122V266.8H12.642v6.075H10.5A4.94,4.94,0,0,0,5.565,277.813ZM68.817,276H70.96a1.815,1.815,0,0,1,1.813,1.813v2.207a1.815,1.815,0,0,1-1.813,1.813H68.817V276ZM8.686,277.813A1.815,1.815,0,0,1,10.5,276h2.143v5.834H10.5a1.815,1.815,0,0,1-1.812-1.813v-2.207h0Z" transform="translate(-5.565 -243.844)" fill="#4d515a"/><path d="M118.117,105.232a1.56,1.56,0,0,0-1.877-1.16l-20.262,4.792L95.56,107.1a4.939,4.939,0,0,0-5.936-3.667l-2.147.508a4.945,4.945,0,0,0-3.666,5.938l.417,1.765-20.262,4.793a1.561,1.561,0,1,0,.718,3.038l52.273-12.363A1.561,1.561,0,0,0,118.117,105.232ZM86.848,109.16a1.823,1.823,0,0,1,1.347-2.181l2.147-.508a1.815,1.815,0,0,1,2.181,1.347l.417,1.765-5.675,1.342Z" transform="translate(-54.733 -103.299)" fill="#4d515a"/></g></g></svg>