<svg xmlns="http://www.w3.org/2000/svg" width="812.146" height="216.791" viewBox="0 0 812.146 216.791"><g transform="translate(-341.075 -484.154)" style="isolation:isolate"><g transform="translate(920.866 484.154)"><rect width="111.16" height="192.567" fill="#785000"/></g><g transform="translate(929.733 493.026)"><rect width="93.421" height="183.695" fill="#643c00"/></g><g transform="translate(947.576 539.594)"><rect width="57.749" height="79.653" fill="#5a3200"/></g><g transform="translate(947.576 626.452)"><rect width="57.749" height="24.761" fill="#5a3200"/></g><g transform="translate(934.915 575.908)"><rect width="7.476" height="22.317" fill="#ffb400"/></g><g transform="translate(937.173 584.852)"><path d="M599.841,529.577h-13.9a2.217,2.217,0,1,1,0-4.434h13.9a2.217,2.217,0,0,1,0,4.434Z" transform="translate(-583.718 -525.143)" fill="#ffc800"/></g><g transform="translate(976.442 484.154)" opacity="0.2" style="mix-blend-mode:screen;isolation:isolate"><rect width="55.585" height="192.567" fill="#785000"/></g><g transform="translate(786.652 513.929)"><g transform="translate(73.656 66.028)"><rect width="43.074" height="5.777" fill="#f0f0f0"/></g><g transform="translate(72.968 77.577)"><rect width="43.071" height="5.777" fill="#f0f0f0"/></g><g transform="translate(71.315 71.805)"><rect width="43.074" height="5.772" fill="#e6e6e6"/></g><g transform="translate(72.687 60.234)"><rect width="43.078" height="5.78" fill="#e6e6e6"/></g><g transform="translate(59.063 155.454)"><g transform="translate(0.001)"><path d="M566.141,564.085a5.5,5.5,0,0,1-.776,2.8h-18.1a5.472,5.472,0,0,1-.771-2.8s8.1-4.533,12.912-4.533C564.338,559.552,566.141,561.35,566.141,564.085Z" transform="translate(-546.49 -559.552)" fill="#323232"/></g><g transform="translate(0 4.532)"><rect width="19.651" height="2.805" fill="#323232"/></g></g><g transform="translate(37.076 30.829)"><path d="M568.089,531.179l.29-14.991-9.242-6.078.673-1.287-1.58.322s-8.952,7.979-10.424,13.463c-.857,3.2-3.906,16.669-6.053,24.707h0L537.54,565.73l21.624,4.528Z" transform="translate(-537.54 -508.823)" fill="#c80000"/></g><g transform="translate(56.69 4.521)"><path d="M562.193,528.815c-.324,0-.634-.02-.926-.037-3.127-.147-3.641-.776-4.248,1.786-.125.484-.192,1.088-.388,1.815-.666,2.486-7.992-4.4-9.124-6.67l2.943-5.628s-7.075-3.434-4.267-13.956,14.337-7.655,14.337-7.655a15.836,15.836,0,0,1,10.048,9.731C572.074,512.208,568.04,528.886,562.193,528.815Z" transform="translate(-545.524 -498.114)" fill="#f0cdaf"/></g><g transform="translate(65.399 26.149)"><path d="M551.855,517.74c-4.631-4.1-2.091-10.822-2.091-10.822-.577,4.348,3.363,8.208,6.338,9.036C552.975,515.806,552.462,515.177,551.855,517.74Z" transform="translate(-549.069 -506.918)" fill="#dcb99b"/></g><g transform="translate(54.784 3.036)"><path d="M573.059,509.268a8.213,8.213,0,0,1-5.758-1.953,5.957,5.957,0,0,0-2.7,1.617c-2.542,2.422-4.26,6.7-4.311,7.957l-1.2-.057s-.634-2.6-2.71-3.157-3.122.86-3.23,2.408a10.2,10.2,0,0,0,.508,2.626l-1.182,4.228-1.992-.531s-7.375-6.783-5.4-14.15a17.4,17.4,0,0,1,2.926-6.159c2.636-3.457,7.169-5.9,14.9-3.825,5.768,1.54,8.215,4.061,9.935,6.515A12.169,12.169,0,0,1,573.059,509.268Z" transform="translate(-544.748 -497.51)" fill="#c89632"/></g><g transform="translate(51.466 40.403)"><g transform="translate(0 1.029)"><path d="M564.293,543.108l-11.082.9-8.984-23.66-.762-2.007,0,0a5.229,5.229,0,0,1,.056-1.941l.226-.081,8.336-3.167.029-.008a5.31,5.31,0,0,1,1.735,2.034l.115.3.137.386.1.263Z" transform="translate(-543.398 -513.139)" fill="#dc1400"/></g><path d="M554.186,519.653a5.47,5.47,0,0,1-6.778,3.7,5.552,5.552,0,0,1-3.182-2.4,5.618,5.618,0,0,1-.762-2.007l0,0a5.229,5.229,0,0,1,.056-1.941.624.624,0,0,1,.034-.138,1,1,0,0,1,.059-.238,5.452,5.452,0,0,1,6.783-3.69,5.17,5.17,0,0,1,1.644.791c.017.015.032.017.042.027a5.372,5.372,0,0,1,1.737,2.024,2.222,2.222,0,0,1,.143.3l.137.386a1.428,1.428,0,0,1,.086.263A5.211,5.211,0,0,1,554.186,519.653Z" transform="translate(-543.398 -512.72)" fill="#dc1400"/></g><g transform="translate(88.47 75.916)"><path d="M563.874,537.566c-3.933-1.646-6.24-5.11-5.139-7.746s5.184-3.432,9.124-1.789,6.245,5.112,5.152,7.751S567.817,539.212,563.874,537.566Z" transform="translate(-558.46 -527.175)" fill="#f0cdaf"/></g><g transform="translate(67.135 66.287)"><path d="M575.012,531.7l-3.594,9.335-21.642-8.047,3.258-9.731Z" transform="translate(-549.776 -523.256)" fill="#dc1400"/></g><g transform="translate(88.948 75.182)"><rect width="9.045" height="1.615" transform="matrix(0.358, -0.934, 0.934, 0.358, 0, 8.446)" fill="#f0f0f0"/></g><g transform="translate(61.279 68.006)"><path d="M547.392,528.25c.671,1.68,3.835,2.968,5.857,3.717s4.225-5.582,4.225-5.582l-4.913-2.43Z" transform="translate(-547.392 -523.956)" fill="#dc1400"/></g><g transform="translate(57.584)"><path d="M571.315,512.415a10.773,10.773,0,0,1-.285,1.071l-7.93-2.8-16.934-5.967-.278-.093a13.328,13.328,0,0,1,25.228,1.491,12.164,12.164,0,0,1,.435,4.474A9.823,9.823,0,0,1,571.315,512.415Z" transform="translate(-545.888 -496.274)" fill="#c80000"/></g><g transform="translate(73.774 12.136)"><path d="M568.157,505.511l-6.213-3.737-9.419-.56c-.776,3.663,8.237,6.532,12.247,6.213C569.741,507.029,568.157,505.511,568.157,505.511Z" transform="translate(-552.478 -501.214)" fill="#c80000"/></g><g transform="translate(52.838 91.391)"><path d="M549.818,534.347v2.3s12.394,25.245,12.662,28.834,1.378,32.789,1.378,32.789l-13.649,4.1s1.631-27.783.8-30.4-7.056-13.251-7.056-13.251l1.685-25.243Z" transform="translate(-543.956 -533.475)" fill="#004664"/></g><g transform="translate(8.777 87.736)"><path d="M554.32,531.987l1.479,34.426-26.444-5.648-3.334,11.748s22.557,7.346,31.153,9.623,9.308-.727,10.655-8.277,6.5-37.683,6.5-37.683Z" transform="translate(-526.021 -531.987)" fill="#1e5a78"/></g><g transform="translate(0 115.206)"><g transform="translate(0.39 0.635)"><path d="M524.536,560.447a5.307,5.307,0,0,1-1.928-2.046l9.08-14.973a5.394,5.394,0,0,1,2.7.771s-.31,8.964-2.729,12.947C529.186,561.233,526.8,561.815,524.536,560.447Z" transform="translate(-522.607 -543.427)" fill="#323232"/></g><g transform="translate(0 0)"><rect width="19.003" height="2.711" transform="translate(0 16.248) rotate(-58.759)" fill="#323232"/></g></g></g><g transform="translate(408.855 510.38)"><path d="M701.526,494.829a25.505,25.505,0,0,1,25.508,25.513V624.775a15.544,15.544,0,0,1-.857,5.169,15.977,15.977,0,0,1-15.091,10.775H395.779c-22.358,0-26.279-11.669-26.947-21.11-.167-2.01-.167-3.923-.167-5.609,0-.543,0-1.088.034-1.661a35.735,35.735,0,0,1,.769-5.9,36.388,36.388,0,0,1,14.347-22.189c10.846-8.1,46.272-29.087,46.272-29.087L498.97,506.5a63.81,63.81,0,0,1,36.8-11.669Z" transform="translate(-368.665 -494.829)" fill="#dcdcdc"/><g transform="translate(0 71.755)"><path d="M727.034,524.037v58.192a15.545,15.545,0,0,1-.857,5.169,15.977,15.977,0,0,1-15.091,10.775H395.779c-22.358,0-26.279-11.669-26.947-21.11-.167-2.01-.167-3.923-.167-5.609,0-.543,0-1.088.034-1.661a35.736,35.736,0,0,1,.769-5.9A36.388,36.388,0,0,1,383.815,541.7H579.3c23.37,0,30.9-16.492,52.1-16.492C652.636,525.211,727.034,524.037,727.034,524.037Z" transform="translate(-368.665 -524.037)" fill="#d2d2d2"/></g><g transform="translate(96.484 131.7)"><rect width="173.395" height="5.417" fill="#969696"/></g><g transform="translate(0 117.511)"><path d="M420.752,542.662v28.38H395.779c-27.114,0-27.114-17.155-27.114-26.719,0-.543,0-1.088.034-1.661Z" transform="translate(-368.665 -542.662)" fill="#969696"/></g><g transform="translate(31.382 107.878)"><path d="M451.089,573.562c0,1.091-.066,2.14-.165,3.191H381.6c-.1-1.051-.165-2.1-.165-3.191a34.825,34.825,0,0,1,69.65,0Z" transform="translate(-381.439 -538.741)" fill="#dcdcdc"/></g><g transform="translate(41.014 117.511)"><path d="M410.548,593.046a25.192,25.192,0,1,1,25.2-25.2A25.219,25.219,0,0,1,410.548,593.046Z" transform="translate(-385.36 -542.662)" fill="#414042"/><g transform="translate(5.498 5.506)" opacity="0.1" style="mix-blend-mode:screen;isolation:isolate"><path d="M426.976,564.586A19.689,19.689,0,1,1,407.288,544.9,19.69,19.69,0,0,1,426.976,564.586Z" transform="translate(-387.598 -544.903)" fill="#fff"/></g><g transform="translate(5.012 5.029)"><path d="M427.449,561.474a15.983,15.983,0,0,0-.482-2.061,14.847,14.847,0,0,0-.521-1.629,15.059,15.059,0,0,0-.882-1.97,20.18,20.18,0,0,0-15.008-10.891c-.685-.088-1.378-.167-2.088-.189-.307-.025-.595-.025-.909-.025-.28,0-.553,0-.833.025-.71.022-1.413.1-2.113.189A20.281,20.281,0,0,0,388.7,557.761a20.3,20.3,0,0,0-.99,3.712,19.061,19.061,0,0,0-.315,3.4,20.014,20.014,0,0,0,6.043,14.349l1.575,1.425c.457.359.909.688,1.388,1.01a18.057,18.057,0,0,0,1.85,1.091,20.06,20.06,0,0,0,18.656-.017l1.867-1.118a16.659,16.659,0,0,0,1.354-.98l.052-.032,1.476-1.319.064-.076a19.975,19.975,0,0,0,5.724-17.727Zm-2.57-3.1c.182.477.346.973.479,1.462,0,.037.017.049.017.1l-11.559,3.741-2.123.685c0-.022-.022-.049-.022-.091a4.438,4.438,0,0,0-.5-1.457c-.017-.02-.042-.047-.042-.066l2.145-.69,11.576-3.754C424.865,558.314,424.865,558.341,424.879,558.373Zm-14.323-11.748a18.479,18.479,0,0,1,13.4,9.719l-8.537,2.771-3.466,1.133-1.4.44Zm-3.83-.2h.042a4.938,4.938,0,0,1,.7-.039h.248c.174,0,.373,0,.545.017a.7.7,0,0,1,.206.022v14.443h-.01a.1.1,0,0,0-.042-.017,3.539,3.539,0,0,0-.791-.066,3.24,3.24,0,0,0-.857.083h-.042Zm.833,16.617a1.82,1.82,0,1,1-1.815,1.813A1.805,1.805,0,0,1,407.56,563.041Zm-2.945-16.415v14.062l-1.4-.44-3.432-1.133-8.6-2.793A18.48,18.48,0,0,1,404.614,546.625Zm-14.843,13.246a10.953,10.953,0,0,1,.494-1.449.426.426,0,0,1,.049-.133l11.583,3.764,2.218.71s0,.005,0,.027a3.882,3.882,0,0,0-.545,1.56v.054l-2.164-.732-11.63-3.751Zm4.663,17.971a18.26,18.26,0,0,1-5.341-12.974,17.3,17.3,0,0,1,.224-2.879l8.643,2.813,3.442,1.1,1.346.459-.85,1.192-2.113,2.921Zm2.955,2.471c-.027-.025-.027-.039-.039-.039-.482-.317-.884-.641-1.314-.951l-.025-.039,7.206-9.94,1.329-1.808c.017.042.052.074.069.074a3.512,3.512,0,0,0,1.187.9.137.137,0,0,0,.115.049l-1.3,1.811Zm10.171,3.049a17.921,17.921,0,0,1-8.321-2.007l5.375-7.37,2.113-2.933.872-1.174.87,1.2,2.088,2.906,5.358,7.36A17.99,17.99,0,0,1,407.56,583.362Zm11.5-4.021a11.378,11.378,0,0,1-1.206.865l-.064.052-7.233-9.906-1.263-1.761a.577.577,0,0,0,.125-.081,3.607,3.607,0,0,0,1.16-.843,1.177,1.177,0,0,0,.1-.088l1.273,1.766,7.191,9.932Zm1.668-1.513-5.309-7.355-2.147-2.921-.823-1.192,1.368-.459,3.434-1.1,8.586-2.8a18.629,18.629,0,0,1,.231,2.864A18.294,18.294,0,0,1,420.727,577.828Z" transform="translate(-387.4 -544.709)" fill="#b4b4b4"/></g></g><g transform="translate(312.51 117.511)"><path d="M541.732,542.662V555.1a15.955,15.955,0,0,1-15.949,15.944h-29.91v-28.38Z" transform="translate(-495.873 -542.662)" fill="#969696"/></g><g transform="translate(262.74 107.878)"><path d="M545.254,573.562c0,1.091-.064,2.14-.152,3.191H475.769c-.091-1.051-.155-2.1-.155-3.191a34.82,34.82,0,1,1,69.64,0Z" transform="translate(-475.614 -538.741)" fill="#dcdcdc"/></g><g transform="translate(272.375 117.511)"><path d="M504.715,593.046a25.192,25.192,0,1,1,25.2-25.2A25.215,25.215,0,0,1,504.715,593.046Z" transform="translate(-479.536 -542.662)" fill="#414042"/><g transform="translate(5.496 5.506)" opacity="0.1" style="mix-blend-mode:screen;isolation:isolate"><path d="M521.144,564.586A19.685,19.685,0,1,1,501.456,544.9,19.69,19.69,0,0,1,521.144,564.586Z" transform="translate(-481.773 -544.903)" fill="#fff"/></g><g transform="translate(5.009 5.029)"><path d="M521.612,561.474a15.553,15.553,0,0,0-.469-2.061c-.14-.562-.346-1.113-.521-1.629a16.885,16.885,0,0,0-.882-1.97,20.193,20.193,0,0,0-15.01-10.891c-.683-.088-1.385-.167-2.1-.189-.3-.025-.592-.025-.9-.025-.283,0-.553,0-.833.025-.71.022-1.42.1-2.115.189A20.183,20.183,0,0,0,483.744,555.8a19.794,19.794,0,0,0-.872,1.96,13.027,13.027,0,0,0-.521,1.631,11.515,11.515,0,0,0-.462,2.081,18.843,18.843,0,0,0-.314,3.4,20.014,20.014,0,0,0,6.043,14.349l1.575,1.425c.457.359.9.688,1.391,1.01a17.032,17.032,0,0,0,1.847,1.091,20.061,20.061,0,0,0,18.656-.017l1.865-1.118c.447-.292.909-.624,1.356-.98l.049-.032,1.476-1.319.066-.076a20.071,20.071,0,0,0,6.011-14.332A19.215,19.215,0,0,0,521.612,561.474Zm-2.565-3.1a13.22,13.22,0,0,1,.486,1.462c0,.037.017.049.017.1l-11.559,3.741-2.13.685a.758.758,0,0,1-.017-.091,4.133,4.133,0,0,0-.513-1.457c0-.02-.039-.047-.039-.066l2.154-.69,11.566-3.754C519.03,558.314,519.03,558.341,519.047,558.373Zm-14.318-11.748a18.475,18.475,0,0,1,13.394,9.719l-8.53,2.771-3.476,1.133-1.388.44Zm-3.827-.2h.039a4.857,4.857,0,0,1,.7-.039h.246c.182,0,.373,0,.545.017a.655.655,0,0,1,.206.022v14.443h-.007a.1.1,0,0,0-.042-.017,3.451,3.451,0,0,0-.784-.066,3.228,3.228,0,0,0-.86.083H500.9Zm.833,16.617a1.82,1.82,0,1,1,0,3.641,1.82,1.82,0,0,1,0-3.641Zm-2.948-16.415v14.062l-1.4-.44-3.432-1.133-8.6-2.793A18.462,18.462,0,0,1,498.787,546.625Zm-14.851,13.246a12.629,12.629,0,0,1,.5-1.449c.017-.049.032-.1.047-.133l11.583,3.764,2.228.71s-.007.005-.007.027a3.907,3.907,0,0,0-.536,1.56v.054l-2.179-.732-11.632-3.751Zm4.673,17.971a18.443,18.443,0,0,1-5.127-15.853l8.645,2.813,3.442,1.1,1.354.459-.86,1.192-2.1,2.921Zm2.946,2.471c-.015-.025-.015-.039-.032-.039-.479-.317-.884-.641-1.312-.951a.088.088,0,0,1-.027-.039l7.208-9.94,1.322-1.808c.017.042.052.074.074.074a3.474,3.474,0,0,0,1.189.9.137.137,0,0,0,.115.049l-1.3,1.811Zm10.181,3.049a17.921,17.921,0,0,1-8.321-2.007l5.373-7.37,2.115-2.933.865-1.174.867,1.2,2.1,2.906,5.351,7.36A17.95,17.95,0,0,1,501.735,583.362Zm11.5-4.021a11.224,11.224,0,0,1-1.211.865l-.057.052-7.235-9.906-1.26-1.761a1.158,1.158,0,0,0,.123-.081,3.561,3.561,0,0,0,1.155-.843.807.807,0,0,0,.108-.088l1.263,1.766,7.2,9.932Zm1.67-1.513-5.309-7.355-2.147-2.921-.833-1.192,1.378-.459,3.435-1.1L520,562a18.634,18.634,0,0,1,.233,2.864A18.329,18.329,0,0,1,514.9,577.828Z" transform="translate(-481.575 -544.709)" fill="#b4b4b4"/></g></g><g transform="translate(91.666 10.623)"><path d="M524.943,505.523V553.9a6.082,6.082,0,0,1-.735,2.933,6.354,6.354,0,0,1-5.648,3.449H409.152a3.2,3.2,0,0,1-2.105-5.582l26.63-23.314,27.738-24.329a31.933,31.933,0,0,1,21.019-7.908h36.384A6.428,6.428,0,0,1,524.943,505.523Z" transform="translate(-405.978 -499.153)" fill="#969696"/></g><g transform="translate(91.666 42.859)"><path d="M439.772,541.171h-30.62a3.2,3.2,0,0,1-2.105-5.582l26.63-23.314Z" transform="translate(-405.978 -512.275)" fill="#646464"/></g><g transform="translate(123.19 61.071)"><path d="M506.251,519.688v4.3a6.4,6.4,0,0,1-6.383,6.382H418.81V519.688Z" transform="translate(-418.81 -519.688)" fill="#646464"/></g><g transform="translate(204.507 10.623)"><path d="M458.035,505.523V553.9a6.083,6.083,0,0,1-.734,2.933h-5.39V499.153A6.428,6.428,0,0,1,458.035,505.523Z" transform="translate(-451.91 -499.153)" fill="#646464"/></g><g transform="translate(125.457 42.861)"><rect width="4.783" height="24.978" transform="matrix(0.817, -0.577, 0.577, 0.817, 0, 2.761)" fill="#646464"/></g><g transform="translate(64.336 8.318)"><path d="M394.853,548.177s8.1,8.92,12.888,7.741,62.444-53,58.391-57.7Z" transform="translate(-394.853 -498.215)" fill="#969696"/></g><g transform="translate(130.686 10.623)" opacity="0.1"><path d="M501.807,505.523v13.239l-41.55,41.523h-38.4l61.154-61.132h12.667A6.428,6.428,0,0,1,501.807,505.523Z" transform="translate(-421.861 -499.153)" fill="#fff"/></g><g transform="translate(0 111.61)"><path d="M388.215,540.26l-6.373,13.17H368.832c-.167-2.009-.167-3.923-.167-5.609,0-.543,0-1.088.034-1.661a35.736,35.736,0,0,1,.769-5.9Z" transform="translate(-368.665 -540.26)" fill="#fff"/></g><g transform="translate(348.803 107.878)"><path d="M520.212,538.741v22.068a15.544,15.544,0,0,1-.857,5.169h-8.709V538.741Z" transform="translate(-510.646 -538.741)" fill="#f06400"/></g><g transform="translate(93.873 58.124)"><path d="M432.241,520.863c0,2.388-.307,5.427-.538,7.729-.595,5.6-5.525.324-6.6,1.081-1.427,1.039,3.27,2.722,3.987,3.859a126.709,126.709,0,0,1-14.313.74c-7.026-.182-8.058-1.179-7.886-2.319,4.029-3.344,8.264-7.223,13.853-10.434,1.123-.656,2.147-1.231,3.179-1.71a.067.067,0,0,1,.066-.032,12.182,12.182,0,0,1,4.491-1.27C429.8,518.381,432.241,518.878,432.241,520.863Z" transform="translate(-406.876 -518.489)" fill="#dcdcdc"/></g><g opacity="0.1" style="mix-blend-mode:screen;isolation:isolate"><path d="M642.175,494.829,496.29,640.719H395.779c-22.358,0-26.279-11.669-26.947-21.11-.167-2.01-.167-3.923-.167-5.609,0-.543,0-1.088.034-1.661a35.735,35.735,0,0,1,.769-5.9,36.388,36.388,0,0,1,14.347-22.189c10.846-8.1,46.272-29.087,46.272-29.087L498.97,506.5a63.81,63.81,0,0,1,36.8-11.669Z" transform="translate(-368.665 -494.829)" fill="#fff"/></g></g><path d="M1140.937,586.966H353.358a12.283,12.283,0,1,1,0-24.567h787.579a12.283,12.283,0,0,1,0,24.567Z" transform="translate(0 113.979)" fill="#2d2d2d"/></g></svg>