<svg xmlns="http://www.w3.org/2000/svg" width="62.013" height="62.013" viewBox="0 0 62.013 62.013"><path d="M62.107,214.428a31.006,31.006,0,0,1-61.983,0l11.435-6.815,11.5,6.808a8.109,8.109,0,0,0,16.107,0l11.506-6.808Z" transform="translate(-0.109 -182.467)" fill="#ff9a52"/><path d="M62.013,31.007c0,.319-.005.638-.015.954-2.847-.007-2.853-1.908-5.709-1.908s-2.862,1.908-5.723,1.908S47.7,30.053,44.84,30.053s-2.862,1.908-5.724,1.908l-.056-.007a8.109,8.109,0,1,0-16.107,0l-.056.007c-2.862,0-2.862-1.908-5.724-1.908s-2.862,1.908-5.723,1.908-2.864-1.908-5.726-1.908-2.862,1.9-5.709,1.908C.005,31.644,0,31.325,0,31.007a31.007,31.007,0,0,1,62.013,0Z" fill="#8e4238"/><g transform="translate(3.527 3.067)"><path d="M80.23,36.729a1.022,1.022,0,0,1-.774-1.689,27.929,27.929,0,0,1,21.165-9.721,1.022,1.022,0,0,1,0,2.044A25.888,25.888,0,0,0,81,36.374,1.02,1.02,0,0,1,80.23,36.729Z" transform="translate(-73.142 -25.319)" fill="#fff"/><path d="M30.144,141.182a1.023,1.023,0,0,1-1.006-1.211,27.674,27.674,0,0,1,3.773-9.638,1.022,1.022,0,0,1,1.732,1.086,25.646,25.646,0,0,0-3.5,8.929A1.023,1.023,0,0,1,30.144,141.182Z" transform="translate(-29.121 -117.193)" fill="#fff"/><path d="M440.651,141.185a1.022,1.022,0,0,1-1-.834,25.644,25.644,0,0,0-3.5-8.929,1.022,1.022,0,0,1,1.732-1.086,27.68,27.68,0,0,1,3.773,9.638,1.022,1.022,0,0,1-.816,1.193A1.047,1.047,0,0,1,440.651,141.185Z" transform="translate(-386.715 -117.195)" fill="#fff"/></g><g transform="translate(14.657 42.315)"><circle cx="1.022" cy="1.022" r="1.022" transform="translate(31.426 4.089)" fill="#dc774e"/><circle cx="1.022" cy="1.022" r="1.022" transform="translate(27.338)" fill="#dc774e"/><circle cx="1.022" cy="1.022" r="1.022" transform="translate(0 1.022)" fill="#dc774e"/></g></svg>