<svg xmlns="http://www.w3.org/2000/svg" width="41.209" height="62.013" viewBox="0 0 41.209 62.013"><g transform="translate(-85.881)"><path d="M159.845,426.854v1.082h-36.7v-1.082a2.824,2.824,0,0,1,1.975-2.576s7.566-2.035,7.566-5.2l8.807-2.726,8.807,2.726c0,3.166,7.566,5.2,7.566,5.2A2.824,2.824,0,0,1,159.845,426.854Z" transform="translate(-32.755 -365.923)" fill="#74d1d2"/><path d="M93.966,33.758l2.819,23.17a10.9,10.9,0,1,0,0,21.807h2.654l.5,4.089H117.55l5.97-49.065Zm2.819,40.888a6.815,6.815,0,0,1,0-13.629h.5l1.659,13.629H96.784Z" transform="translate(0 -29.669)" fill="#c8feff"/><path d="M207.955,4.089,197.3,8.178,186.639,4.089a4.089,4.089,0,0,1,7.373-2.435,4.09,4.09,0,0,1,6.569,0,4.089,4.089,0,0,1,7.373,2.435Z" transform="translate(-88.554)" fill="#e8d6bd"/><path d="M207.954,33.758l-4.949,40.664c0,2.119-11.419,2.119-11.419,0l-4.949-40.664Z" transform="translate(-88.553 -29.669)" fill="#c67741"/></g></svg>