<svg xmlns="http://www.w3.org/2000/svg" width="38.721" height="61.953" viewBox="0 0 38.721 61.953"><g transform="translate(-54.364)"><path d="M102.222,0A11.616,11.616,0,1,1,90.606,11.616,11.617,11.617,0,0,1,102.222,0Z" transform="translate(-28.498)" fill="#cb4e44"/><path d="M65.012,27.182A10.648,10.648,0,1,1,54.364,37.83,10.648,10.648,0,0,1,65.012,27.182Z" transform="translate(0 -21.374)" fill="#e5685e"/><path d="M146.557,27.182A10.648,10.648,0,1,1,135.909,37.83,10.649,10.649,0,0,1,146.557,27.182Z" transform="translate(-64.121 -21.374)" fill="#e98179"/><path d="M54.364,81.265v9.74a3.873,3.873,0,0,0,3.872,3.872h3.872l9.68,30.977H75.66l9.68-30.977h3.872a3.873,3.873,0,0,0,3.872-3.872v-9.74Z" transform="translate(0 -63.901)" fill="#efc75e"/><path d="M54.364,99.667H93.085v5.808H54.364Z" transform="translate(0 -78.371)" fill="#d7b354"/><path d="M96.137,162.671l17.7-17.7H90.606Z" transform="translate(-28.498 -113.993)" fill="#d7b354"/></g></svg>