<svg xmlns="http://www.w3.org/2000/svg" width="87.742" height="41.776" viewBox="0 0 87.742 41.776"><g transform="translate(0 -134.112)"><path d="M58.446,154.366a4.252,4.252,0,0,0-2.906.015l-.008,0a.6.6,0,0,1-.789-.429,49.841,49.841,0,0,0-2.242-6.15,24.691,24.691,0,0,0-20.536-13.644,20.557,20.557,0,0,0-6.093.521,24.587,24.587,0,0,0-4.611,1.5,24.815,24.815,0,0,0-12.69,12.635,49.929,49.929,0,0,0-1.735,5.149.6.6,0,0,1-.789.429l-.037-.014a4.708,4.708,0,0,0-5.556,2.135A4.267,4.267,0,0,0,.4,160.245c1.534,3.251,6.536,3.939,9.651,4.4a140.123,140.123,0,0,0,41.444,0c3.115-.465,8.117-1.153,9.651-4.4A4.348,4.348,0,0,0,58.446,154.366Z" transform="translate(0 -0.004)" fill="#f4ddc6"/><path d="M142.707,160.242a6.962,6.962,0,0,1-4.34,3.282,4.761,4.761,0,0,0,.8-1.184,2.933,2.933,0,0,0-.993-4.069,4.348,4.348,0,0,0-4-.435l-.009,0a.6.6,0,0,1-.788-.43,71.09,71.09,0,0,0-2.855-7.508,24.7,24.7,0,0,0-20.535-13.644,20.559,20.559,0,0,0-6.093.522,24.494,24.494,0,0,0-4.611,1.5q-.433.188-.855.4a24.543,24.543,0,0,1,9.006-4,20.553,20.553,0,0,1,6.093-.522A24.765,24.765,0,0,1,134.06,147.8a49.765,49.765,0,0,1,2.243,6.151.6.6,0,0,0,.788.428l.009,0a4.255,4.255,0,0,1,2.9-.014A4.35,4.35,0,0,1,142.707,160.242Z" transform="translate(-81.558 0)" fill="#efccac"/><path d="M37.965,245.18h0Z" transform="translate(-31.459 -92.034)"/><path d="M37.957,245.178h0Z" transform="translate(-31.452 -92.033)"/><path d="M211.317,210.283a4.252,4.252,0,0,0-2.906.015l-.008,0a.6.6,0,0,1-.789-.429,49.847,49.847,0,0,0-2.242-6.15,24.692,24.692,0,0,0-20.536-13.644,20.557,20.557,0,0,0-6.093.521,24.588,24.588,0,0,0-4.611,1.5,24.815,24.815,0,0,0-12.69,12.635,49.93,49.93,0,0,0-1.735,5.149.6.6,0,0,1-.789.429l-.037-.014a4.708,4.708,0,0,0-5.556,2.135,4.267,4.267,0,0,0-.052,3.729c1.534,3.251,6.536,3.939,9.651,4.4q5,.747,10.039,1.159,2.556.208,5.119.33c1.881.09,3.718.152,5.59.169,2.32.02,4.654-.112,6.968-.245q6.891-.4,13.728-1.413c3.115-.465,8.117-1.153,9.651-4.4A4.348,4.348,0,0,0,211.317,210.283Z" transform="translate(-126.673 -46.338)" fill="#f9e8d4"/><path d="M295.579,216.159a6.962,6.962,0,0,1-4.34,3.282,4.762,4.762,0,0,0,.8-1.184,2.933,2.933,0,0,0-.993-4.069,4.348,4.348,0,0,0-4-.435l-.009,0a.6.6,0,0,1-.788-.43,71.083,71.083,0,0,0-2.855-7.508,24.7,24.7,0,0,0-20.535-13.644,20.559,20.559,0,0,0-6.093.522,24.494,24.494,0,0,0-4.611,1.5q-.433.188-.855.4a24.542,24.542,0,0,1,9.006-4,20.552,20.552,0,0,1,6.093-.522,24.764,24.764,0,0,1,20.535,13.644,49.763,49.763,0,0,1,2.243,6.151.6.6,0,0,0,.788.428l.009,0a4.255,4.255,0,0,1,2.9-.014A4.35,4.35,0,0,1,295.579,216.159Z" transform="translate(-208.232 -46.334)" fill="#f4dbc3"/><g transform="translate(22.003 137.921)"><path d="M174.471,162.855v-5.188a1.328,1.328,0,0,0-2.655,0v5.188a1.328,1.328,0,1,0,2.655,0Z" transform="translate(-164.374 -156.34)" fill="#e59770"/><path d="M208.555,172.045a1.329,1.329,0,0,0,1.28-.976l1.373-5a1.328,1.328,0,0,0-2.56-.7l-1.373,5a1.329,1.329,0,0,0,1.281,1.679Z" transform="translate(-193.716 -163.008)" fill="#e59770"/><path d="M131.09,172.044a1.328,1.328,0,0,0,1.281-1.679l-1.373-5a1.328,1.328,0,0,0-2.56.7l1.373,5A1.328,1.328,0,0,0,131.09,172.044Z" transform="translate(-128.39 -163.007)" fill="#e59770"/><path d="M327.343,213.585a1.328,1.328,0,1,0-2.655,0v5.188a1.328,1.328,0,0,0,2.655,0Z" transform="translate(-291.048 -202.674)" fill="#e59770"/><path d="M361.426,227.961a1.328,1.328,0,0,0,1.279-.976l1.373-5a1.328,1.328,0,0,0-2.56-.7l-1.373,5a1.329,1.329,0,0,0,1.281,1.679Z" transform="translate(-320.389 -209.341)" fill="#e59770"/><path d="M282.237,220.35a1.328,1.328,0,0,0-.929,1.632l1.373,5a1.328,1.328,0,0,0,2.561-.7l-1.373-5A1.328,1.328,0,0,0,282.237,220.35Z" transform="translate(-255.063 -209.341)" fill="#e59770"/></g></g></svg>