<svg xmlns="http://www.w3.org/2000/svg" width="78.757" height="56.057" viewBox="0 0 78.757 56.057"><g transform="translate(0 -73.786)"><path d="M73.445,386.055a20.084,20.084,0,0,1,6.594,6.994,2.029,2.029,0,0,0,1.757,1.029h39.386a2.161,2.161,0,0,0,1.868-1.093,20.054,20.054,0,0,1,6.557-6.93Z" transform="translate(-62.148 -264.235)" fill="#bababa"/><path d="M84.461,393.343a23.786,23.786,0,0,0-5.415-7.288h-5.6a20.084,20.084,0,0,1,6.594,6.994,2.029,2.029,0,0,0,1.757,1.029h3.217A2.352,2.352,0,0,1,84.461,393.343Z" transform="translate(-62.148 -264.235)" fill="#aaa"/><circle cx="8.261" cy="8.261" r="8.261" transform="translate(31.117 73.786)" fill="#f48a2a"/><path d="M205.484,82.048a8.263,8.263,0,0,1,6.666-8.106,8.261,8.261,0,1,0,0,16.211A8.262,8.262,0,0,1,205.484,82.048Z" transform="translate(-171.178 -0.001)" fill="#e57a23"/><circle cx="8.261" cy="8.261" r="8.261" transform="translate(22.857 82.009)" fill="#f4a667"/><path d="M151.78,135.5a8.263,8.263,0,0,1,6.666-8.106,8.261,8.261,0,1,0,0,16.211A8.263,8.263,0,0,1,151.78,135.5Z" transform="translate(-125.735 -45.235)" fill="#ea9860"/><circle cx="8.261" cy="8.261" r="8.261" transform="translate(39.378 82.009)" fill="#f4a667"/><path d="M259.189,135.5a8.263,8.263,0,0,1,6.666-8.106,8.261,8.261,0,1,0,0,16.211A8.262,8.262,0,0,1,259.189,135.5Z" transform="translate(-216.622 -45.235)" fill="#ea9860"/><circle cx="8.261" cy="8.261" r="8.261" transform="translate(14.596 90.27)" fill="#f48a2a"/><path d="M98.076,189.209a8.263,8.263,0,0,1,6.666-8.106,8.261,8.261,0,1,0,0,16.211A8.263,8.263,0,0,1,98.076,189.209Z" transform="translate(-80.291 -90.678)" fill="#e57a23"/><circle cx="8.261" cy="8.261" r="8.261" transform="translate(31.059 90.27)" fill="#f48a2a"/><path d="M205.11,189.209a8.263,8.263,0,0,1,6.666-8.106,8.261,8.261,0,1,0,0,16.211A8.262,8.262,0,0,1,205.11,189.209Z" transform="translate(-170.861 -90.678)" fill="#e57a23"/><circle cx="8.261" cy="8.261" r="8.261" transform="translate(47.639 90.27)" fill="#f48a2a"/><path d="M312.893,189.209a8.263,8.263,0,0,1,6.666-8.106,8.261,8.261,0,1,0,0,16.211A8.262,8.262,0,0,1,312.893,189.209Z" transform="translate(-262.065 -90.678)" fill="#e57a23"/><g transform="translate(14.596 105.172)"><circle cx="8.261" cy="8.261" r="8.261" fill="#f48a2a"/><circle cx="8.261" cy="8.261" r="8.261" transform="translate(16.522)" fill="#f48a2a"/><circle cx="8.261" cy="8.261" r="8.261" transform="translate(33.044)" fill="#f48a2a"/></g><path d="M78.757,346.346v-1.523a2.771,2.771,0,0,0-2.763-2.763H2.763A2.771,2.771,0,0,0,0,344.823v1.523a2.771,2.771,0,0,0,2.763,2.763H75.994A2.771,2.771,0,0,0,78.757,346.346Z" transform="translate(0 -227.008)" fill="#d1d1d1"/><circle cx="8.261" cy="8.261" r="8.261" transform="translate(6.335 98.531)" fill="#f4a667"/><path d="M44.372,242.913a8.263,8.263,0,0,1,6.666-8.106,8.261,8.261,0,1,0,0,16.211A8.262,8.262,0,0,1,44.372,242.913Z" transform="translate(-34.848 -136.121)" fill="#ea9860"/><circle cx="8.261" cy="8.261" r="8.261" transform="translate(22.799 98.531)" fill="#f4a667"/><path d="M151.405,242.913a8.263,8.263,0,0,1,6.666-8.106,8.261,8.261,0,1,0,0,16.211A8.262,8.262,0,0,1,151.405,242.913Z" transform="translate(-125.417 -136.121)" fill="#ea9860"/><circle cx="8.261" cy="8.261" r="8.261" transform="translate(39.378 98.531)" fill="#f4a667"/><path d="M259.188,242.913a8.263,8.263,0,0,1,6.666-8.106,8.261,8.261,0,1,0,0,16.211A8.262,8.262,0,0,1,259.188,242.913Z" transform="translate(-216.621 -136.121)" fill="#ea9860"/><circle cx="8.261" cy="8.261" r="8.261" transform="translate(55.9 98.531)" fill="#f4a667"/><path d="M366.6,242.913a8.263,8.263,0,0,1,6.666-8.106,8.261,8.261,0,1,0,0,16.211A8.262,8.262,0,0,1,366.6,242.913Z" transform="translate(-307.508 -136.121)" fill="#ea9860"/><g transform="translate(11.26 103.443)"><path d="M74.389,270.045a1.189,1.189,0,0,1-.936-1.92l.843-1.08a1.189,1.189,0,0,1,1.873,1.463l-.843,1.08A1.187,1.187,0,0,1,74.389,270.045Z" transform="translate(-73.201 -266.588)" fill="#f48a2a"/><path d="M180.416,270.045a1.189,1.189,0,0,1-.936-1.92l.843-1.08a1.189,1.189,0,0,1,1.873,1.463l-.843,1.08A1.186,1.186,0,0,1,180.416,270.045Z" transform="translate(-162.919 -266.588)" fill="#f48a2a"/><path d="M285.939,270.045a1.189,1.189,0,0,1-.936-1.92l.843-1.08a1.189,1.189,0,1,1,1.873,1.463l-.843,1.08A1.187,1.187,0,0,1,285.939,270.045Z" transform="translate(-252.21 -266.588)" fill="#f48a2a"/><path d="M391.966,270.045a1.189,1.189,0,0,1-.936-1.92l.843-1.08a1.189,1.189,0,1,1,1.873,1.463l-.843,1.08A1.187,1.187,0,0,1,391.966,270.045Z" transform="translate(-341.928 -266.588)" fill="#f48a2a"/></g><path d="M78.61,354.315a2.772,2.772,0,0,1-2.617,1.885H2.763a2.772,2.772,0,0,1-2.617-1.885,2.74,2.74,0,0,0-.146.878v1.523a2.771,2.771,0,0,0,2.763,2.763H75.994a2.771,2.771,0,0,0,2.763-2.763v-1.523A2.727,2.727,0,0,0,78.61,354.315Z" transform="translate(0 -237.378)" fill="#bababa"/></g></svg>