<svg xmlns="http://www.w3.org/2000/svg" width="121.542" height="49" viewBox="0 0 121.542 49"><g transform="translate(-196.458 -85)"><text transform="translate(241 103)" fill="#fff" font-size="18" font-family="CeraPro-Regular, Cera Pro"><tspan x="0" y="0">BAGMATI</tspan></text><text transform="translate(240 129)" fill="#fff" font-size="20" font-family="CeraPro-Bold, Cera Pro" font-weight="700"><tspan x="0" y="0">SWEETS</tspan></text><g transform="translate(186.462 90.77)"><g transform="translate(9.996)"><g transform="translate(0)"><rect width="2.523" height="1.261" transform="translate(17.412 29.084)" fill="#fff"/><rect width="2.523" height="1.261" transform="translate(17.412 32.237)" fill="#fff"/><path d="M88.234,327.857l-1.244-.209a8.316,8.316,0,0,0-.114,1.363h1.261A7.02,7.02,0,0,1,88.234,327.857Z" transform="translate(-80.816 -301.82)" fill="#fff"/><path d="M46.142,17.306a5.993,5.993,0,0,0-4.511-2.094l2.261-.9A2.874,2.874,0,0,0,45.5,10.605a2.838,2.838,0,0,0-1.518-1.583,2.939,2.939,0,0,0-.283-.106,2.876,2.876,0,0,0,.182-2.469A2.852,2.852,0,0,0,41.653,4.66a2.87,2.87,0,0,0,.019-2.137A2.838,2.838,0,0,0,37.983.9L35.29,1.971A12.517,12.517,0,0,0,28.836.082L28.669,0,28.5.083a12.517,12.517,0,0,0-6.454,1.889L19.356.9a2.838,2.838,0,0,0-3.689,1.619,2.873,2.873,0,0,0,.02,2.137,2.867,2.867,0,0,0-.711.206,2.834,2.834,0,0,0-1.517,1.582,2.876,2.876,0,0,0,.182,2.469,2.939,2.939,0,0,0-.283.106,2.836,2.836,0,0,0-1.518,1.583,2.874,2.874,0,0,0,1.607,3.711l2.291.908a5.99,5.99,0,0,0-5.25,8.351l.487,1.14a9.133,9.133,0,0,0,1.794,8.1l-1.985,6.354h35.77l-1.925-6.158.023.02.048-.056a9.143,9.143,0,0,0,1.914-8.264l.488-1.14A5.96,5.96,0,0,0,46.142,17.306Zm-2.666-7.127a1.588,1.588,0,0,1,.848.885,1.61,1.61,0,0,1-.9,2.08l-2.146.851V12.687a12.632,12.632,0,0,0-.184-2.062l1.176-.467A1.562,1.562,0,0,1,43.476,10.178ZM41.858,6.022a1.586,1.586,0,0,1,.847.884,1.61,1.61,0,0,1-.9,2.08l-.983.39A12.5,12.5,0,0,0,39.6,6.42l.467-.185.022-.009L40.653,6A1.561,1.561,0,0,1,41.858,6.022ZM38.446,2.077a1.561,1.561,0,0,1,1.2.02,1.584,1.584,0,0,1,.847.884,1.61,1.61,0,0,1-.878,2.074L38.9,5.34a12.7,12.7,0,0,0-2.374-2.5Zm1.574,10.61V15.21H38.759V12.687A10.106,10.106,0,0,0,31.73,3.075a3.657,3.657,0,0,0-.691-1.486A11.37,11.37,0,0,1,40.02,12.687Zm-.935,11.041A6.988,6.988,0,0,1,40,26.748L38.661,24.96A9.365,9.365,0,0,0,39.085,23.728ZM25.636,11.685,25.3,12.1,27.2,14a19.553,19.553,0,0,0-7.361,2.016V13.675A17.9,17.9,0,0,1,25.636,11.685Zm-5.784.547a8.829,8.829,0,0,1,17.634,0,19.724,19.724,0,0,0-6.917-1.963l-1.9-2.375-1.9,2.375A19.729,19.729,0,0,0,19.852,12.232Zm7.139-.222,1.677-2.1,1.677,2.1-1.677,1.677Zm5.045.093-.335-.419a17.913,17.913,0,0,1,5.8,1.99v2.345A19.553,19.553,0,0,0,30.136,14ZM28.121,1.684l.548-.274.548.274a2.416,2.416,0,0,1,1.067,1.054,9.262,9.262,0,0,0-3.23,0A2.416,2.416,0,0,1,28.121,1.684Zm-1.823-.1a3.65,3.65,0,0,0-.691,1.486,10.106,10.106,0,0,0-7.028,9.612V15.21H17.317V12.687A11.37,11.37,0,0,1,26.3,1.589ZM16.841,2.982a1.58,1.58,0,0,1,.847-.884,1.558,1.558,0,0,1,1.2-.02l1.92.761a12.721,12.721,0,0,0-2.374,2.5l-.718-.284A1.61,1.61,0,0,1,16.841,2.982ZM14.633,6.906a1.582,1.582,0,0,1,.847-.884,1.563,1.563,0,0,1,1.2-.02l.565.224.023.009.467.185a12.549,12.549,0,0,0-1.227,2.956l-.983-.39A1.61,1.61,0,0,1,14.633,6.906Zm-.723,6.238a1.61,1.61,0,0,1-.9-2.08,1.584,1.584,0,0,1,.848-.885,1.559,1.559,0,0,1,1.2-.02l1.176.467a12.548,12.548,0,0,0-.184,2.062v1.307Zm-1.662,11.7.062-.216-.663-1.548A4.739,4.739,0,0,1,16,16.471h2.575v1.177a9.669,9.669,0,0,0-.383,1.374,5.252,5.252,0,0,0-4.527,3.3l-.09.225,1.171.467.09-.225A4,4,0,0,1,18,20.3c-.035.395-.056.8-.056,1.218,0,.131.013.263.02.395l-.271.361a8.175,8.175,0,0,0-1.209,2.3l1.2.4a6.974,6.974,0,0,1,.569-1.246,9.569,9.569,0,0,0,.708,1.855l-1.428,1.9a7.365,7.365,0,0,0-1.433,5.2,1.919,1.919,0,0,1-2.2-.472l-.048-.057A7.885,7.885,0,0,1,12.248,24.842ZM12.5,37.912l1.3-4.175a3.067,3.067,0,0,0,2.546.207,7.331,7.331,0,0,0,2.806,3.968Zm8.911,0L20.041,37a6.117,6.117,0,0,1-1.5-8.76l1.119-1.491c.188.274.388.544.605.805a3.414,3.414,0,0,0,.455,1.153l-.371.742a4.793,4.793,0,0,0-.32,3.477,2.2,2.2,0,0,0-.189.886v.315a5.124,5.124,0,0,0,1.648,3.784Zm6,0H24.675A3.687,3.687,0,0,1,21.1,34.129v-.315a.947.947,0,0,1,.946-.946h.067a.88.88,0,0,1,.879.879v.382a1.892,1.892,0,1,0,3.784,0V30.083l-.185-.185a7.1,7.1,0,0,1-1.034-1.312,12.481,12.481,0,0,1-.672-4.548H23.624a22.051,22.051,0,0,0,.133,2.3,3.135,3.135,0,0,1-.764-.412l-2.3-1.726L20.4,25.576a7.919,7.919,0,0,1-1.188-4.06,9.877,9.877,0,0,1,.633-3.67l.2-.5a18.439,18.439,0,0,1,8.373-2.128l.254.254.254-.254A18.448,18.448,0,0,1,37.3,17.345l.2.5a9.882,9.882,0,0,1,.633,3.671,7.919,7.919,0,0,1-1.188,4.06L36.646,24.2l-2.3,1.726a3.131,3.131,0,0,1-.763.412,22.05,22.05,0,0,0,.133-2.3H32.452a12.481,12.481,0,0,1-.672,4.548A7.231,7.231,0,0,1,30.745,29.9l-.185.185v4.676A3.157,3.157,0,0,1,27.407,37.912Zm-5.93-7.9.161-.322a3.562,3.562,0,0,0,.471.286,3.441,3.441,0,0,0,1.553.37h.01l1.616,0c.085.1.163.184.227.253v3.531a.631.631,0,1,1-1.261,0v-.382a2.142,2.142,0,0,0-2.14-2.14h-.067a2.19,2.19,0,0,0-.928.211A3.523,3.523,0,0,1,21.478,30.014Zm.021-3.561.013-.057.725.544a4.423,4.423,0,0,0,1.735.774,5.928,5.928,0,0,0,.434,1.372h-.742a2.228,2.228,0,0,1-1.016-.25A2.162,2.162,0,0,1,21.5,26.453Zm12.166,3.895h.01a3.477,3.477,0,0,0,1.58-.383,3.4,3.4,0,0,0,.977-.74l.395.79a3.561,3.561,0,0,1-2.6,5.106l-1.227.2a5.01,5.01,0,0,1-.806.066h-.223a4.431,4.431,0,0,0,.05-.631V30.6c.064-.069.143-.156.227-.253Zm-.732-1.263a5.958,5.958,0,0,0,.434-1.372,4.421,4.421,0,0,0,1.734-.774l.725-.544.013.057a2.211,2.211,0,0,1-2.164,2.634h-.742Zm3.743,8.828H30.491a4.437,4.437,0,0,0,.9-1.261H32a6.2,6.2,0,0,0,1.012-.084l1.227-.2a4.822,4.822,0,0,0,3.521-6.914l-.766-1.531a3.407,3.407,0,0,0,.085-.365,10.763,10.763,0,0,0,.953-1.337l1.519,2.026A6.117,6.117,0,0,1,38.045,37Zm8.162,0H38.93a7.339,7.339,0,0,0,2.956-7.433A6.5,6.5,0,0,1,43.272,32.9Zm1.106-14.833-.664,1.548.062.216a7.873,7.873,0,0,1-1.208,6.8A7.738,7.738,0,0,0,41,28.145a7.352,7.352,0,0,0-.442-.661l-.219-.293h.946a8.247,8.247,0,0,0-1.64-4.919l-.271-.362c.006-.132.02-.264.02-.395,0-.415-.021-.816-.055-1.208a4.007,4.007,0,0,1,2.132.993l.849-.933a5.274,5.274,0,0,0-3.175-1.356,9.818,9.818,0,0,0-.38-1.362V16.471h2.827a4.741,4.741,0,0,1,4.358,6.608Z" transform="translate(-9.996)" fill="#fff"/><path d="M210.029,217.788a2.208,2.208,0,0,0,1.081.282,1.991,1.991,0,0,0,2.072-1.892h-1.261a.748.748,0,0,1-.811.631.9.9,0,0,1-.635-.25l-.446-.446-.446.446a.9.9,0,0,1-.635.25.748.748,0,0,1-.811-.631h-1.261a1.991,1.991,0,0,0,2.072,1.892A2.21,2.21,0,0,0,210.029,217.788Z" transform="translate(-191.356 -199.076)" fill="#fff"/><path d="M282.18,255.5a2.959,2.959,0,0,0,2.456-1.61l-1.126-.568a1.423,1.423,0,0,1-2.659,0l-1.126.568A2.957,2.957,0,0,0,282.18,255.5Z" transform="translate(-258.462 -233.351)" fill="#fff"/><path d="M154.18,254.236a1.717,1.717,0,0,1-1.329-.916l-1.126.568a2.678,2.678,0,0,0,4.912,0l-1.126-.568A1.72,1.72,0,0,1,154.18,254.236Z" transform="translate(-140.552 -233.351)" fill="#fff"/><path d="M418.428,270.784l-1.048.7a4.005,4.005,0,0,1,.388.737l.09.225,1.171-.467-.091-.226A5.3,5.3,0,0,0,418.428,270.784Z" transform="translate(-385.266 -249.438)" fill="#fff"/></g></g></g></g></svg>