<svg xmlns="http://www.w3.org/2000/svg" width="124.98" height="135" viewBox="0 0 124.98 135"><g transform="translate(-19)"><g transform="translate(31.161)"><path d="M158.216,3.989A32.006,32.006,0,0,0,142.041,0a15.467,15.467,0,0,0-11.009,4.56,15.671,15.671,0,0,0-3.072,4.361L75.048,6.377c-.23-.018-.458-.027-.7-.028A9.226,9.226,0,0,0,74.34,24.8c.229,0,.459-.008.7-.027l52.907-2.545a15.5,15.5,0,0,0,14.089,8.921c8.161,0,15.582-2.548,19.85-6.817a12.316,12.316,0,0,0,3.889-8.759C165.78,11.02,163.094,6.906,158.216,3.989Zm-.054,16.616c-3.3,3.3-9.328,5.272-16.121,5.272a10.246,10.246,0,0,1-9.814-7.168,2.637,2.637,0,0,0-2.513-1.841c-.042,0-.085,0-.128,0L74.753,19.509l-.082.005c-.117.009-.216.014-.323.013a3.953,3.953,0,0,1-.007-7.905c.11,0,.215,0,.321.013l.092.006,54.834,2.638a2.64,2.64,0,0,0,2.639-1.834,10.34,10.34,0,0,1,2.535-4.156,10.228,10.228,0,0,1,7.28-3.016,26.711,26.711,0,0,1,13.47,3.242c3.222,1.926,5,4.433,5,7.059A7.174,7.174,0,0,1,158.162,20.605Z" transform="translate(-65.122)" fill="#fff"/></g><g transform="translate(33.872 25.73)"><path d="M161.421,103.93c-.226,0-.458.008-.7.027L107.808,106.5a15.543,15.543,0,0,0-13.816-8.917H78.039a2.637,2.637,0,1,0,0,5.273H91.31v7.66H78.039a2.637,2.637,0,0,0,0,5.273H91.31v7.66H78.039a2.637,2.637,0,1,0,0,5.273H93.992a15.485,15.485,0,0,0,10.738-4.554,15.669,15.669,0,0,0,3.072-4.362l52.912,2.545c.233.018.461.027.7.027a9.226,9.226,0,0,0,.007-18.452Zm2.787,12.02a3.915,3.915,0,0,1-3.109,1.144l-.09-.006-54.834-2.638a2.636,2.636,0,0,0-2.639,1.834A10.342,10.342,0,0,1,101,120.442a10.239,10.239,0,0,1-4.417,2.611V103.258a10.255,10.255,0,0,1,6.951,6.764,2.637,2.637,0,0,0,2.641,1.838l54.833-2.638.082-.005c.117-.009.222-.013.323-.013a3.952,3.952,0,0,1,2.794,6.747Z" transform="translate(-75.402 -97.585)" fill="#fff"/></g><g transform="translate(19 62.076)"><path d="M141.344,269.256H139.48l-5.172-22.117a15.1,15.1,0,0,0-14.764-11.709H43.436a15.1,15.1,0,0,0-14.764,11.709L23.5,269.256H21.637a2.637,2.637,0,0,0,0,5.273H23.5l5.17,22.115a15.1,15.1,0,0,0,14.763,11.709h76.109a15.1,15.1,0,0,0,14.764-11.709l5.173-22.115h1.863a2.637,2.637,0,1,0,0-5.273ZM29.908,265.013h79.915a2.637,2.637,0,1,0,0-5.273H31.142l2.666-11.4a9.848,9.848,0,0,1,9.629-7.637h76.109a9.849,9.849,0,0,1,9.629,7.636l4.891,20.916H28.916Zm64.9,9.517v2.846a4.571,4.571,0,0,1-4.565,4.565h-17.5a4.571,4.571,0,0,1-4.565-4.565V274.53Zm34.367,20.914a9.849,9.849,0,0,1-9.629,7.637H43.436a9.848,9.848,0,0,1-9.629-7.636l-4.89-20.914H62.9v2.846a9.85,9.85,0,0,0,9.839,9.839h17.5a9.85,9.85,0,0,0,9.839-9.839v-2.846h33.986Z" transform="translate(-19 -235.43)" fill="#fff"/></g><g transform="translate(117.078 86.385)"><path d="M396.19,329.746a2.664,2.664,0,0,0-.15-.493,2.826,2.826,0,0,0-.243-.456,2.558,2.558,0,0,0-.728-.728,2.712,2.712,0,0,0-.456-.243,2.667,2.667,0,0,0-.493-.15,2.61,2.61,0,0,0-1.031,0,2.73,2.73,0,0,0-.493.15,2.663,2.663,0,0,0-.454.243,2.524,2.524,0,0,0-.4.327,2.6,2.6,0,0,0-.572.857,2.664,2.664,0,0,0-.15.493,2.614,2.614,0,0,0-.05.514,2.607,2.607,0,0,0,.2,1.01,2.6,2.6,0,0,0,.572.857,2.537,2.537,0,0,0,.4.327,2.674,2.674,0,0,0,.454.243,2.727,2.727,0,0,0,.493.15,2.624,2.624,0,0,0,.517.05,2.6,2.6,0,0,0,.514-.05,2.665,2.665,0,0,0,.493-.15,2.7,2.7,0,0,0,.456-.243,2.558,2.558,0,0,0,.728-.728,2.824,2.824,0,0,0,.243-.456,2.664,2.664,0,0,0,.15-.493,2.546,2.546,0,0,0,0-1.031Z" transform="translate(-390.97 -327.624)" fill="#fff"/></g></g></svg>