<svg xmlns="http://www.w3.org/2000/svg" width="274" height="337.334" viewBox="0 0 274 337.334"><g transform="translate(-495 -377.245)"><circle cx="137" cy="137" r="137" transform="translate(495 433)" fill="#fd5f00"/><g transform="translate(510.112 377.245)"><path d="M942.492,369.588s-2.263,25.146,5.883,37.655c0,0-.823,7.818-3.2,11.478-5.89,9.069-21.623,21.97-28.622,21.467-8.091-.582-12.876-10.726-14.464-18.491a24.52,24.52,0,0,1,0-8.4s4.336-12.557.06-31.612Z" transform="translate(-797.886 -290.72)" fill="#f2a4a1"/><path d="M904.7,400.62c8.379,9.308,19.88,11.461,26.678,9.253,6.915-2.246,11.229-10.375,12.542-18.077-.193-6.778-.719-22.208-.719-22.208l-39.359,11.807-.327.1q-.288.207-.6.438A88.108,88.108,0,0,1,904.7,400.62Z" transform="translate(-798.592 -290.72)" fill="#db7f88"/><path d="M939.039,914.753V935.87s-97.62,14.6-113.547-13.4l.931-17.3Z" transform="translate(-752.679 -608.344)" fill="#7a6763"/><path d="M942.145,254.687c-2.056-9.718-9.152-7.932-11-5.354-.468-14.372-4.36-25.889-15.392-32.224-17.155-9.852-36.738-1.485-41.57,4.561a32.45,32.45,0,0,0-6.674,25.906c1.887,12.079-5.979,13.827-3.818,29.077,2.572,18.152,14.3,28.184,21.413,28.7,25.385,1.828,41.952-12.7,44.575-32.111q.15-1.107.288-2.211C938.379,269.379,943.516,261.164,942.145,254.687Z" transform="translate(-775.112 -197.6)" fill="#f2a4a1"/><path d="M854.978,462.923a3.53,3.53,0,0,0-4.159-.368c-.679.372-5.977,2.616-8.6,3.908-7.883,3.875-15.325,6.615-16.933,9.3-1.689,2.825,1.218,40.314-.564,88.9-.564,15.373.231,41.08-.618,53.077-.4,5.595-3.772,22.191-.19,28.213,2.968,4.989,20.639,9.625,51.766,11.265,32.709,1.723,61.459-10.475,61.459-10.475s2.609-9.915,1.514-25.526c-.972-13.862-1-37.557-.726-62.64.444-41.128,5.532-76.314,4.671-79.115-2.682-8.727-16.039-9.2-25.234-14.488-7.146-4.113-10.362-9.989-11.9-10.906a6.22,6.22,0,0,0-5.324-.388s-6.866,29.357-30.449,28.679C853.41,481.9,854.978,462.923,854.978,462.923Z" transform="translate(-750.773 -340.341)" fill="#5b6177"/><path d="M957.936,324.779s4.957-11.049,13.713-13.181c5.077-1.236,12.8-14.253,12.8-14.253l3.658,3.731-7.462,29.3S956.367,342.338,957.936,324.779Z" transform="translate(-831.183 -247.877)" fill="#db7f88"/><path d="M860.71,221.1s-8.162-3.295-8.142-14.432c.026-14.367,13.6-27.372,25.3-29.854,21.74-4.611,32.087,7.8,32.087,7.8s12.123-2.427,18.034,3.642c7.962,8.176,7.6,22.832,5.8,31.1a18.894,18.894,0,0,1-3.032,6.38s-4.01-.92-6,2.224l-.625,11.907-4.025.385s.372-2.916.524-6.958c.1-2.669,1.269-5.625.619-8.941-.775-3.962-5.694-3.115-9.318-9.287-3.047-5.191-3.354-15.021-2.993-13.446,0,0-9.65,4.5-19.833-.133C863.709,189.926,860.71,221.1,860.71,221.1Z" transform="translate(-768.738 -175.786)" fill="#473832"/><path d="M927.562,523.835s-26.182,73.635-13,92.845c10.566,14.146,23.06,13.284,23.06,13.284s-10.838,63.5-6.591,69.284c0,0,16.751.644,17.6-.74s10.429-128.133,10.429-128.133Z" transform="translate(-803.304 -382.196)" fill="#4c5266"/><path d="M888.4,276.7s2.313-3.523,8.459-3.848c2.379-.126,4.844.845,5.439,2.018.649,1.277-.179,2.961-.875,2.707-1.667-.608-2.687-1.559-4.77-1.64-2.543-.1-3.76-.236-6.772,1.377C889.281,277.638,888.1,277.345,888.4,276.7Z" transform="translate(-789.958 -233.346)" fill="#473832"/><path d="M972.493,284.847a12.356,12.356,0,0,0-8.777-4.707c-2.368-.261-4.884.568-5.546,1.705-.72,1.238-.007,2.9.719,2.752,1.773-.359,3.012-1.237,4.856-1.366,2.538-.178,4.491.348,7.406,2.13C971.732,285.718,972.76,285.506,972.493,284.847Z" transform="translate(-831.187 -237.645)" fill="#473832"/><path d="M993.2,455.264a79.142,79.142,0,0,0,16.619,9.589c10.931,4.293,18.323,7.682,20.841,14.26,2.141,5.593-4.241,42.727-3.263,86.151s9.341,91.5,8.181,95.884c-3.747,14.154-65.355,14.733-65.355,14.733s0-23.108,2.94-42.081c4.045-26.114,6.131-57.3,7.9-73.968C983.751,534.52,993.2,455.264,993.2,455.264Z" transform="translate(-838.512 -341.531)" fill="#f89e54"/><path d="M930.318,321.1l-4.284,5.329a69.115,69.115,0,0,1-3.828,12.246c-1.923,4.605-10.452,7.15-10.452,7.15s-8.933-11.18-21.906-12.276A19.678,19.678,0,0,0,871.2,342.8a13.228,13.228,0,0,1-5.518-3.925,15.007,15.007,0,0,1-2.187-4.8c-.144-1.008-.493-.793-.493-.793s-5.788,32.8,24.876,38.922c21.793,4.348,37.575-12.484,41.025-28.545C930.992,333.919,930.318,321.1,930.318,321.1Zm-44.139,32.747c-9.126-.658-10.662-8.148-10.662-8.148s3.182-6.722,13.278-5.734,10.847,9.108,10.847,9.108S895.3,354.506,886.178,353.847Z" transform="translate(-774.666 -261.964)" fill="#473832"/><g transform="translate(129.24 44.461)"><path d="M995.919,286.458l12.646,14.347a5.67,5.67,0,0,1,.658,6.316l-24.71,44.635a3.793,3.793,0,0,1-6.386.755l-12.646-14.347a5.671,5.671,0,0,1-.658-6.316l24.71-44.635A3.793,3.793,0,0,1,995.919,286.458Z" transform="translate(-964.155 -285.04)" fill="#7875a8"/><path d="M998.8,288.272l12.646,14.347a5.67,5.67,0,0,1,.658,6.316l-24.71,44.635a3.793,3.793,0,0,1-6.386.755L968.36,339.979a5.671,5.671,0,0,1-.658-6.316l24.71-44.635A3.793,3.793,0,0,1,998.8,288.272Z" transform="translate(-965.862 -286.116)" fill="#222438"/><g transform="translate(37.7 15.777)"><path d="M1059.975,327.817a2.579,2.579,0,0,0,.348,3.2,1.72,1.72,0,0,0,2.7-.337,2.578,2.578,0,0,0-.349-3.2A1.719,1.719,0,0,0,1059.975,327.817Z" transform="translate(-1058.444 -325.686)" fill="#595959"/><path d="M1061.487,329.476a1.677,1.677,0,0,0,.227,2.08,1.118,1.118,0,0,0,1.754-.219,1.677,1.677,0,0,0-.227-2.079A1.118,1.118,0,0,0,1061.487,329.476Z" transform="translate(-1059.424 -326.844)" fill="#353131"/><path d="M1063.05,331.211a.781.781,0,0,0,.105.969.521.521,0,0,0,.817-.1.781.781,0,0,0-.105-.969A.521.521,0,0,0,1063.05,331.211Z" transform="translate(-1060.433 -328.047)" fill="#1c1919"/><path d="M1056.961,324.154a1.059,1.059,0,0,0,.143,1.313.706.706,0,0,0,1.107-.138,1.059,1.059,0,0,0-.143-1.313A.706.706,0,0,0,1056.961,324.154Z" transform="translate(-1056.796 -323.808)" fill="#ededed"/></g></g><g transform="translate(113.002 64.387)"><path d="M976.1,356.1c-.245-2.586-1.554-4.526-4.306-9.542h0s-8.771-13.7-14.587-12.472c-5.663,1.192-10.659,3.148-10.176,5.639-4.707,1.258-8.307,3.083-7.492,5.318a3.311,3.311,0,0,0,1.584,1.8c-2.867,1.139-4.661,2.562-4.061,4.208a3.72,3.72,0,0,0,2.78,2.265c-3.682,1.213-5.177,2.577-4.556,4.511.943,2.936,8.272,1.66,8.272,1.66s1.527,2.172,1.975,2.716c.571.692,2.35,2.742,2.35,2.742.041,6.355.219,13.432.219,13.432s-10.942,26.926-18.621,67.52c-5.1,26.976-9.052,48.455,1.067,55.139,25.347,16.741,37.293-12.43,32.391-24.354s3.376-96.128,3.376-96.128C969.665,375.3,976.45,359.838,976.1,356.1Zm-18.147-12.459c-.54-.556-1.1-1.091-1.661-1.59.182-.044.288-.072.288-.072Z" transform="translate(-924.252 -334.005)" fill="#f2a4a1"/><path d="M958.975,378.292a27.139,27.139,0,0,0,3.772-.413c2.03-.37,4.348-1.07,5.665-.494a12.321,12.321,0,0,1,2.607,2.222c1.769,1.638,3.265,3.265,3.265,3.265l-.878.549s-4.547-5.315-6.42-5.542c-1.926-.233-4.715,1.292-6.556,1.031A3.611,3.611,0,0,1,958.975,378.292Z" transform="translate(-944.844 -359.602)" fill="#db7f88"/><path d="M965.7,361.583a40.76,40.76,0,0,0,4.328-1.224c2.079-.737,3.988-1.723,4.866-1.446,2.5.788,8.426,8.525,8.426,8.525l-.79.658s-6.789-8.4-8.02-7.984S966.1,362.889,965.7,361.583Z" transform="translate(-948.832 -348.748)" fill="#db7f88"/><path d="M980.215,345.859s.333-.782,2-1.333c1.954-.645,4.993.66,6.749,1.589,3.11,1.646,6.327,6.214,6.327,6.214l-1.279.768s-4.319-4.523-5.994-5.542C986.181,346.438,981.721,345.424,980.215,345.859Z" transform="translate(-957.441 -340.142)" fill="#db7f88"/></g><path d="M971.577,521.332s10.183-27.182,29.7-19.36c8.2,3.287,7.411,17.7,2.872,32.889-3.107,10.4-6.465,20.957-13.564,34-12.987,23.87-21.579,31.106-32.1,34.7-17.813,6.092-26.4-8.942-26.4-8.942l16.837-27.843Z" transform="translate(-815.892 -368.392)" fill="#f2a4a1"/><path d="M1005.2,639.969c19.534-14.047,32.921-44.554,35.031-72.247L988.9,645.336S993.508,648.377,1005.2,639.969Z" transform="translate(-849.59 -408.224)" fill="#e2894d"/><path d="M866.14,475.729a3.53,3.53,0,0,0-4.159-.368c-.679.372-5.977,2.616-8.6,3.908-1.2.588-2.383,1.15-3.541,1.69h0c-16.665,16.394-4.753,159.738-2.615,183.909a140.591,140.591,0,0,0,19.173,3.456C851.346,634.992,866.14,475.729,866.14,475.729Z" transform="translate(-761.936 -353.148)" fill="#4c5266"/><path d="M939.576,463.769l26.208,2.522-.293,29.285s11.6-22.718,24.16-20.693c12.622,2.034,12.957,15.325,10.372,33.862-1.356,9.724-9.762,28.549-22.387,48.724-11.442,18.285-25.358,32.393-42.686,27.241-18.821-5.595-13.876-35.724-7.684-65.43C933.065,491.459,939.576,463.769,939.576,463.769Z" transform="translate(-809.737 -346.574)" fill="#f89e54"/><path d="M833.259,468.328a4.245,4.245,0,0,1-.694,2.63c-1.111,1.135-3.3,1.8-4.122,6.009-3.689,18.853-7.877,60.619-7.407,95.452.739,54.831,2.19,108.394,6.749,113.292,0,0-43.951-12.2-43.292-30.637.342-9.585,6.919-51.309,10.59-94.266,3.389-39.663,3.864-81.12,4.782-82.033C803.834,474.828,824.821,462.552,833.259,468.328Z" transform="translate(-728.361 -348.377)" fill="#f89e54"/><g transform="translate(56.124 151.838)"><path d="M807.676,548.9c-3.4,2.277-10.858,36.875-10.884,36.92-.3,4.232-1.347,19.43-1.71,23.672-3.67,42.956-10.247,84.681-10.59,94.266-.24,6.71,5.432,12.593,12.74,17.363,0,0-.339-50.034.483-64.88.639-11.539,1.264-39.8,3.731-65.083C803.6,569.073,807.676,548.9,807.676,548.9Z" transform="translate(-784.485 -548.899)" fill="#e2894d"/></g><path d="M807.838,699.412s6.824,7.435,10.414,9.575a49.407,49.407,0,0,0,12.186,4.966l.147,9.805-3.324,27.89s-12.6-.219-23.011,4.609c-3.259,1.511-3.993-15.287-3.993-15.287Z" transform="translate(-737.715 -486.322)" fill="#e2894d"/><path d="M904.4,299.139a2.037,2.037,0,1,1-2.037-2.037A2.037,2.037,0,0,1,904.4,299.139Z" transform="translate(-797.06 -247.732)" fill="#232021"/><path d="M722.353,503.947s-17.5,16.579-32.757,28.626c-22.513,17.769-36.873,24.6-37.366,44.115-.17,6.76,9.215,15.85,21.564,23.21,22.034,13.132,52.291,25.152,52.291,25.152l11.74-18.172L690,568.975,720.378,554.8Z" transform="translate(-649.925 -370.402)" fill="#f2a4a1"/><circle cx="2.037" cy="2.037" r="2.037" transform="translate(127.274 51.986)" fill="#232021"/><g transform="translate(107.733 49.517)"><path d="M917.4,317.3a7.525,7.525,0,0,1-5.707-3.47,2.7,2.7,0,0,1,1.024-3.786c4.836-3.236,4.483-11.857,4.479-11.943a.61.61,0,0,1,.58-.639.617.617,0,0,1,.639.58c.019.382.394,9.4-5.018,13.017a1.5,1.5,0,0,0-.624,2.2c.909,1.714,3.9,3.263,5.243,2.719a.611.611,0,0,1,.459,1.132A2.856,2.856,0,0,1,917.4,317.3Z" transform="translate(-911.304 -297.464)" fill="#b26464"/></g><g transform="translate(103.705 82.384)"><path d="M916.878,375.371a.606.606,0,0,0-.387.139c-5.867,4.811-14.1.5-14.185.455a.61.61,0,0,0-.577,1.076,19.082,19.082,0,0,0,5.265,1.729,12.352,12.352,0,0,0,10.271-2.316.611.611,0,0,0-.387-1.083Z" transform="translate(-901.407 -375.371)" fill="#9e4343"/></g><path d="M718.074,496.213s-19.753,18.148-39.9,35.5c-18.106,15.6-31.639,25.679-31.6,37.092.047,15.492,14.863,25.618,31.111,33.636a278.029,278.029,0,0,1,31.432,18.018l17.611-27.7-28.335-25.6s19.3-10.977,24.237-16.945C729.569,541.813,734.489,497.362,718.074,496.213Z" transform="translate(-646.57 -365.815)" fill="#f89e54"/><path d="M1021.926,470.542s-2.267,19.929-3.918,41.726c-1.558,20.574-2.432,43.01-4.7,45.385,0,0,6.382-1.9,6.51-8.489.074-3.754,1.049-26.558,1.939-47.267C1022.433,486.283,1023.411,471.071,1021.926,470.542Z" transform="translate(-864.066 -350.591)" fill="#e2894d"/><path d="M1048.429,496.1a18.377,18.377,0,0,0-10.1,10.154c-3.364,8.782-6.145,18.946-6.145,18.946l.656-18.519S1043.543,494.985,1048.429,496.1Z" transform="translate(-875.261 -365.706)" fill="#e2894d"/><path d="M742.528,657.536s-10.667-10.072-21.531-8.82C721,648.716,737.886,658.847,742.528,657.536Z" transform="translate(-690.709 -456.193)" fill="#e2894d"/><g transform="translate(73.743 236.19)"><path d="M827.78,773.186l13.306-17.01s6.623,1.429,13.033,2.579c4.662.836,10.14,1.281,11.638,3.221,3.556,4.609,4.994,14.371,4.116,16.785s-9.5,12.882-24.437,12.737c-4.181-.041-11.618-1.318-8.859-7.01.853-1.759,5.041.072,6.308-.233s1.193-1.029,1.193-1.029S828.257,779.208,827.78,773.186Z" transform="translate(-827.78 -756.176)" fill="#f2a4a1"/><path d="M916.142,790.086s2.579,9.053,2.933,12.391l-1.257,1.244s-.607-9.355-2.664-12.318Z" transform="translate(-879.597 -776.286)" fill="#db7f88"/><path d="M904.312,797.974s3.57,11.816,2.649,13.4l-1.808,1.1s.676-1.76-.182-6.312a58.008,58.008,0,0,0-1.716-7.623Z" transform="translate(-872.541 -780.964)" fill="#db7f88"/><path d="M888.911,804.694s3.437,11.52,2.254,13.8l-1.363.457a33.782,33.782,0,0,0-.314-7.859,12.237,12.237,0,0,0-2.346-5.528Z" transform="translate(-862.985 -784.95)" fill="#db7f88"/></g><path d="M811.16,765.257s4.746-6.681,9.179-11.943A58.794,58.794,0,0,1,826.618,747c.985-.836,3.555.1,4.8,1a5.414,5.414,0,0,1,2.14,2.925s-5.4,6.1-7,8.182c-2.018,2.635-8.222,9.889-8.222,9.889s-2.769,1.244-4.528-.159C812.2,767.559,811.16,766.235,811.16,765.257Z" transform="translate(-744.181 -514.353)" fill="#222438"/><path d="M822.66,763.323s.076,1,1.92,2.538a6.255,6.255,0,0,0,3.951,1.029s3.3-4.97,4.58-6.558c1.15-1.429,5.132-5.513,5.132-5.513a4.859,4.859,0,0,0-2.016-2.7,5.228,5.228,0,0,0-3.306-1.139s-3.857,3.8-4.966,5.13C826.5,757.86,822.66,763.323,822.66,763.323Z" transform="translate(-751 -516.9)" fill="#828bbc"/></g></g></svg>