<svg xmlns="http://www.w3.org/2000/svg" width="77.099" height="48.652" viewBox="0 0 77.099 48.652"><g transform="translate(-8.816 -25.857)"><path d="M33.948,58.535c3.245-3.79,6.589-6.7,10.027-10.319,4.243-4.461,8.633-8.787,13.261-12.847,2.191-1.922,5.914-8.934,8.773-9.5,1-.2,1.09,2.39,2.017,2.807,1.255.565,1.67,4.295,2.337,5.5,4.852,8.76,7.5,19.17,15.057,25.743,1.089.947,2.276,1.019,3.143,2.172a4.457,4.457,0,0,1,.891,4.056c-.838,2.334-3.875,3.607-6.355,3.666-14.206.341-28.409-.6-42.588-1.533-2.394-.158-6.929-.955-8.578-3.093-1.619-2.1.635-5.037,2.015-6.647Z" transform="translate(-3.729)" fill="#fed35b"/><g transform="translate(29.328 30.414)"><path d="M63.813,41.346c-.436,1.014-.028,2.219-.291,3.291A15.923,15.923,0,0,1,62.3,47.609a37.044,37.044,0,0,0-2.791,8.27A9.252,9.252,0,0,1,58.363,59.3c-.534.776-.091,2.739-.856,3.289-1.384.994-4.026.609-5.659,1.094a15.832,15.832,0,0,1-4.449.768A79.817,79.817,0,0,0,33.39,65.534a17.933,17.933,0,0,0,3.627.266c10.309.006,20.6-1.288,30.9-1.01a101.422,101.422,0,0,1,17.225,1.948c-1.416-.258,2.164-.392.748-.651-1.393-.254-6.179-1.12-7.52-1.574-.753-.254-3.1-.083-3.87-.262a16.565,16.565,0,0,0-3.691-.212,31.847,31.847,0,0,1-9.332-1.421,2.817,2.817,0,0,1-1.059-.508,1.878,1.878,0,0,1-.548-.955,5.153,5.153,0,0,1,.26-2.621L63.3,47.2a63.5,63.5,0,0,0,2.2-9.289,31.272,31.272,0,0,0-.529-6.591c-1.321.868,1,5.009-1.156,10.03Z" transform="translate(-33.39 -31.316)" fill="#f2c34c"/><path d="M75.24,43.313c.059.213.3.351.326.57a.829.829,0,0,1-.081.366,1.534,1.534,0,0,0-.012.947c.045.145.155.307.3.282a.291.291,0,0,0,.147-.085,1.566,1.566,0,0,0,.362-.793l.262-1.078a7.3,7.3,0,0,0,.3-2.18.894.894,0,0,0-.146-.5c-.347-.449-1.443-.207-1.707.243-.217.37.005.564.081.915C75.166,42.407,75.138,42.94,75.24,43.313Z" transform="translate(-40.253 -32.852)" fill="#f2c34c"/><path d="M80.19,51.286a.634.634,0,0,1,.024.324l-.145,1.463a1.561,1.561,0,0,0,.462-1.339,5.618,5.618,0,0,1-.024-1.469c.1-.47.4-.99.127-1.387-.131.067-.285-.048-.355-.177a1.245,1.245,0,0,0-.218-.379c-.731-.629-1.6.955-1.21,1.609C79.14,50.415,79.943,50.737,80.19,51.286Z" transform="translate(-40.888 -34.103)" fill="#f2c34c"/><path d="M73.269,52.945a1.293,1.293,0,0,0,.648.928.314.314,0,0,1,.128.1.24.24,0,0,1,.025.133c-.01.3-.184.607-.091.9.046.143.151.258.207.4a1.069,1.069,0,0,1,.049.46,4.249,4.249,0,0,1-.131.826c-.043.165-.073.386.078.464s.309-.069.35-.222.009-.317.035-.474a2.664,2.664,0,0,1,.131-.39,2.451,2.451,0,0,0,.093-.532l.163-1.624a6.958,6.958,0,0,0,.052-1,3.485,3.485,0,0,0-.241-1.126.737.737,0,0,0-1.139-.167A1.936,1.936,0,0,0,73.269,52.945Z" transform="translate(-39.98 -34.639)" fill="#f2c34c"/><path d="M82.872,58.383a1.658,1.658,0,0,0,.283.349.849.849,0,0,1,.142.793,1.3,1.3,0,0,0-.106.334c-.015.27.253.459.488.592a.673.673,0,0,0,.614.116.489.489,0,0,0,.223-.425c.006-.168-.035-.333-.043-.5a1.31,1.31,0,0,1,.555-1.125.867.867,0,0,0,.25-.2.649.649,0,0,0,.082-.272,5.074,5.074,0,0,0,.076-1.384c-.132-1.026-1.024-.693-1.544-.148C83.562,56.853,82.675,57.926,82.872,58.383Z" transform="translate(-41.565 -35.395)" fill="#f2c34c"/><path d="M74.193,62.279a.872.872,0,0,0-.5-.034.6.6,0,0,0-.191.14,2.12,2.12,0,0,0-.5.795c-.063.179-.084.417.074.523a.486.486,0,0,0,.269.056l.807.009a.555.555,0,0,0,.291-.05,1.583,1.583,0,0,0,.184-.167c.3-.246.731,0,1.113.051a1.449,1.449,0,0,0,1.108-.383,4.3,4.3,0,0,0,.752-.94l.79-1.2a1.273,1.273,0,0,0,.234-.507c.149-1.086-1.635.012-1.971.329-.728.689-1.29,1.635-2.457,1.38Z" transform="translate(-39.929 -36.074)" fill="#f2c34c"/><path d="M84.717,66.239a.282.282,0,0,0,.155-.441l-.251-.611c-.149-.363-.345-.821-.776-.912a.526.526,0,0,0-.694.485c-.013.351.379.7.569.952.3.4.463.818,1,.526Z" transform="translate(-41.616 -36.762)" fill="#f2c34c"/><path d="M90.855,66.771a1.97,1.97,0,0,1,0,.21c.025.22.308.309.414.5s.041.547.264.624a6.7,6.7,0,0,0-.152-1.916,1.251,1.251,0,0,0-.065-.475c-.267-.584-1.24-1.211-1.621-.4a.773.773,0,0,0,.235.931C90.139,66.438,90.791,66.487,90.855,66.771Z" transform="translate(-42.686 -36.873)" fill="#f2c34c"/><path d="M64.078,39.141a1.985,1.985,0,0,0-.554,1.427l-.084.817a1.153,1.153,0,0,0,.046.605.4.4,0,0,0,.5.226l-.008-1.169a.327.327,0,0,1,.043-.2.294.294,0,0,1,.185-.092c.577-.113,1.237.128,1.727-.2a1.766,1.766,0,0,0,.553-1.435l.03-.491c.05-.805-.56-1.353-.823-.477-.144.481.168.509-.335.724-.416.178-.861-.063-1.282.264Z" transform="translate(-38.354 -32.372)" fill="#f2c34c"/><path d="M63.118,47.322c-.4.11-.548.613-.9.833-.443.278-1.135.067-1.456.479-.084.108-.173.268-.305.232-.157-.043-.176-.339-.338-.318a2.264,2.264,0,0,0,.173,1.882,1.116,1.116,0,0,0,1.152-.32,8.135,8.135,0,0,1,.9-.883,1.56,1.56,0,0,1,.828-.257.776.776,0,0,1,.735.359c.051.108.063.231.115.338a.576.576,0,0,0,.62.283A.81.81,0,0,0,65.2,49.5c.3-.6-.048-1.35.185-1.977.08-.215.223-.4.322-.607a.733.733,0,0,0,.036-.66.792.792,0,0,0-1.3-.062c-.169.228-.067.624-.266.849-.328.371-.635.162-1.059.279Z" transform="translate(-37.787 -33.725)" fill="#f2c34c"/><path d="M56.438,49.626a.965.965,0,0,1-.3.779.624.624,0,0,1-.787-.172,1.344,1.344,0,0,1-.25-.829,6.3,6.3,0,0,0-.028-.881,1.3,1.3,0,0,0,.835-.383,1.33,1.33,0,0,0,.031-1.151,1.349,1.349,0,0,1,1.052-1.78c.474-.108.664-.014.583.594-.086.646-.7.709-.935,1.249a7.918,7.918,0,0,0-.2,2.574Z" transform="translate(-36.974 -33.606)" fill="#f2c34c"/><path d="M60.134,56.6a3.019,3.019,0,0,1-.035,1.041,2.114,2.114,0,0,0-.147.575.629.629,0,0,0,.685.591,1.17,1.17,0,0,0,.649-.433,5.327,5.327,0,0,0,1.571-2.947,1.217,1.217,0,0,0-.527-1.278C60.763,53.452,60.047,55.434,60.134,56.6Z" transform="translate(-37.781 -35.066)" fill="#f2c34c"/><path d="M52.079,57.435a2.538,2.538,0,0,1-.461-.332,1.575,1.575,0,0,0-1.006-.178,1.277,1.277,0,0,0-.509.118,1.693,1.693,0,0,0-.6.82,4.777,4.777,0,0,1-1.017,1.361c-.161.15-.337.414-.167.554a.36.36,0,0,0,.186.063,4.074,4.074,0,0,0,1.88-.2,4.526,4.526,0,0,1,1.56-.458,1.606,1.606,0,0,0,.4-.005,1.036,1.036,0,0,0,.392-.226,1.45,1.45,0,0,0,.683-.991C53.882,56.226,52.9,57.738,52.079,57.435Z" transform="translate(-35.846 -35.547)" fill="#f2c34c"/><path d="M49.9,64.966c-.236.088-.515.05-.727.185a.658.658,0,0,0-.047.97,1.209,1.209,0,0,0,1.03.287,10.773,10.773,0,0,0,1.075-.27,24.8,24.8,0,0,0,2.81-.376,4.379,4.379,0,0,0,1.2-.708c.86-.672.789-1.669-.366-2.01-.594-.175-.85.25-1.288.572-.724.532-1.023.35-1.842.215-1.119-.185-.969.81-1.842,1.136Z" transform="translate(-35.959 -36.554)" fill="#f2c34c"/><path d="M76.046,74.546c.013-.087.126-.111.215-.113a16.485,16.485,0,0,1,2.723.151,1.208,1.208,0,0,0,.8-.066c.145-.089.244-.238.388-.329a.989.989,0,0,1,.456-.126,2.823,2.823,0,0,1,1.343.223.477.477,0,0,1,.271.22.414.414,0,0,1,.013.232,1.442,1.442,0,0,1-1.133,1.047A5.259,5.259,0,0,1,79.5,75.8a14.458,14.458,0,0,0-2.029-.008,8.742,8.742,0,0,1-1.443.04,2.1,2.1,0,0,1-1.3-.555,7.821,7.821,0,0,0,1.251-.93.764.764,0,0,1,.241-.17.728.728,0,0,1,.254-.029l1.066.006" transform="translate(-40.222 -38.381)" fill="#f2c34c"/><path d="M65.262,73.371l-1.192.487a1.164,1.164,0,0,1-.979.091.69.69,0,0,0-.21-.1.51.51,0,0,0-.29.084,1.439,1.439,0,0,1-.788.132c-.27-.032-.647-.08-.719.183-.06.22.191.389.4.479a1.571,1.571,0,0,0,1,.187c.253-.067.456-.256.7-.346A2.123,2.123,0,0,1,64,74.5c.46.017,1.843.147,2.2-.181C66.7,73.851,65.625,73.662,65.262,73.371Z" transform="translate(-37.967 -38.268)" fill="#f2c34c"/></g><path d="M11.393,65.026q4.867-5.685,10.027-11.11c4.243-4.461,8.633-8.787,13.261-12.847,2.191-1.922,5.914-8.144,8.773-8.711,1-.2,1.09,1.6,2.017,2.017,1.255.565,1.67,4.295,2.337,5.5,4.852,8.76,7.5,19.17,15.057,25.743a20.694,20.694,0,0,1,3.143,2.962,4.457,4.457,0,0,1,.891,4.056c-.838,2.334-3.875,2.816-6.355,2.876-14.206.341-28.409-.6-42.588-1.533-2.394-.158-6.929-.164-8.578-2.3-1.619-2.1.635-5.037,2.015-6.647Z" transform="translate(0 -1.072)" fill="#feda6f"/><path d="M41.257,46.891c-.436,1.014-.028,2.219-.291,3.291a15.924,15.924,0,0,1-1.224,2.973,37.044,37.044,0,0,0-2.791,8.27,9.252,9.252,0,0,1-1.144,3.425c-.534.776-.091,2.739-.856,3.289-1.384.994-4.026.609-5.659,1.094A15.832,15.832,0,0,1,24.843,70a79.818,79.818,0,0,0-14.009,1.078,17.933,17.933,0,0,0,3.627.266c10.309.006,20.567.076,30.873.354,5.783.156,11.584-.555,17.256.584-1.416-.258,2.164-.392.748-.651-1.393-.254-6.244-.321-7.586-.775-.753-.254-2.865-.448-3.64-.626-1.2-.277-2.846.629-4.081.626A28.389,28.389,0,0,1,39.2,69.709a6.835,6.835,0,0,1-1.6-.9c-.28-.246-.188-1.744-.28-2.1a5.153,5.153,0,0,1,.26-2.621L40.744,52.74a63.5,63.5,0,0,0,2.2-9.289,31.273,31.273,0,0,0-.529-6.591c-1.321.868,1,5.009-1.156,10.03Z" transform="translate(-0.334 -1.819)" fill="#d6b24e"/><g transform="translate(22.904 40.375)"><path d="M52.685,48.857c.059.213.3.351.326.57a.829.829,0,0,1-.081.366,1.534,1.534,0,0,0-.012.947c.045.145.155.307.3.282a.291.291,0,0,0,.147-.085,1.566,1.566,0,0,0,.362-.793l.262-1.078a7.3,7.3,0,0,0,.3-2.18.894.894,0,0,0-.146-.5c-.347-.449-1.443-.207-1.707.243-.217.37.005.564.081.915.087.4.058.936.161,1.309Z" transform="translate(-30.101 -43.73)" fill="#fed35b"/><path d="M57.635,56.83a.634.634,0,0,1,.024.324l-.145,1.463a1.561,1.561,0,0,0,.462-1.339,5.618,5.618,0,0,1-.024-1.469c.1-.47.4-.99.127-1.387-.131.067-.285-.048-.355-.177a1.245,1.245,0,0,0-.218-.379c-.731-.629-1.6.955-1.21,1.609.291.484,1.093.806,1.341,1.354Z" transform="translate(-30.737 -44.981)" fill="#fed35b"/><path d="M50.714,58.49a1.293,1.293,0,0,0,.648.928.314.314,0,0,1,.128.1.24.24,0,0,1,.025.133c-.01.3-.184.607-.091.9.046.143.151.258.207.4a1.069,1.069,0,0,1,.049.46,4.25,4.25,0,0,1-.131.826c-.043.165-.073.386.078.464s.309-.069.35-.222.009-.317.035-.474a2.664,2.664,0,0,1,.131-.39,2.45,2.45,0,0,0,.093-.532l.163-1.624a6.957,6.957,0,0,0,.052-1,3.484,3.484,0,0,0-.241-1.126.737.737,0,0,0-1.139-.167,1.936,1.936,0,0,0-.357,1.332Z" transform="translate(-29.829 -45.517)" fill="#fed35b"/><path d="M60.317,63.928a1.658,1.658,0,0,0,.283.349.849.849,0,0,1,.142.793,1.3,1.3,0,0,0-.106.334c-.015.27.253.459.488.592a.673.673,0,0,0,.614.116.489.489,0,0,0,.223-.425c.006-.168-.035-.333-.043-.5a1.31,1.31,0,0,1,.555-1.125.867.867,0,0,0,.25-.2.649.649,0,0,0,.082-.272A5.074,5.074,0,0,0,62.88,62.2c-.132-1.026-1.024-.693-1.544-.148-.33.345-1.217,1.418-1.019,1.875Z" transform="translate(-31.413 -46.273)" fill="#fed35b"/><path d="M51.638,67.824a.872.872,0,0,0-.5-.034.6.6,0,0,0-.191.14,2.12,2.12,0,0,0-.5.795c-.063.179-.084.417.074.523a.486.486,0,0,0,.269.056l.807.009a.555.555,0,0,0,.291-.05,1.582,1.582,0,0,0,.184-.167c.3-.246.731,0,1.113.051a1.449,1.449,0,0,0,1.108-.383,4.3,4.3,0,0,0,.752-.94l.79-1.2a1.273,1.273,0,0,0,.234-.507c.149-1.086-1.635.012-1.971.329-.728.689-1.29,1.635-2.457,1.38Z" transform="translate(-29.778 -46.952)" fill="#fed35b"/><path d="M62.162,71.784a.282.282,0,0,0,.155-.441l-.251-.611c-.149-.363-.345-.821-.776-.912a.526.526,0,0,0-.694.485c-.013.351.379.7.569.952.3.4.463.818,1,.526Z" transform="translate(-31.464 -47.64)" fill="#fed35b"/><path d="M68.3,72.316a1.97,1.97,0,0,1,0,.21c.025.22.308.309.414.5s.041.547.264.624a6.7,6.7,0,0,0-.152-1.916,1.251,1.251,0,0,0-.065-.475c-.267-.584-1.24-1.211-1.621-.4a.773.773,0,0,0,.235.931C67.584,71.982,68.235,72.032,68.3,72.316Z" transform="translate(-32.534 -47.751)" fill="#fed35b"/><path d="M41.522,44.686a1.985,1.985,0,0,0-.554,1.427l-.084.817a1.153,1.153,0,0,0,.046.605.4.4,0,0,0,.5.226l-.008-1.169a.327.327,0,0,1,.043-.2.294.294,0,0,1,.185-.092c.577-.113,1.237.128,1.727-.2a1.766,1.766,0,0,0,.553-1.435l.03-.491c.05-.805-.56-1.353-.823-.477-.144.481.168.509-.335.724-.416.178-.861-.063-1.282.264Z" transform="translate(-28.202 -43.25)" fill="#fed35b"/><path d="M40.563,52.866c-.4.11-.548.613-.9.833-.443.278-1.135.067-1.456.479-.084.108-.173.268-.305.232-.157-.043-.176-.339-.338-.318a2.264,2.264,0,0,0,.173,1.882,1.116,1.116,0,0,0,1.152-.32,8.135,8.135,0,0,1,.9-.883,1.56,1.56,0,0,1,.828-.257.776.776,0,0,1,.735.359c.051.108.063.231.115.338a.576.576,0,0,0,.62.283.81.81,0,0,0,.547-.448c.3-.6-.048-1.35.185-1.977.08-.215.223-.4.322-.607a.733.733,0,0,0,.036-.66.792.792,0,0,0-1.3-.062c-.169.228-.067.624-.266.849-.328.371-.635.162-1.059.279Z" transform="translate(-27.635 -44.602)" fill="#fed35b"/><path d="M33.882,55.171a.965.965,0,0,1-.3.779.624.624,0,0,1-.787-.172,1.344,1.344,0,0,1-.25-.829,6.3,6.3,0,0,0-.028-.881,1.3,1.3,0,0,0,.835-.383,1.33,1.33,0,0,0,.031-1.151,1.349,1.349,0,0,1,1.052-1.78c.474-.108.664-.014.583.594-.086.646-.7.709-.935,1.249a7.918,7.918,0,0,0-.2,2.574Z" transform="translate(-26.822 -44.484)" fill="#fed35b"/><path d="M37.579,62.141a3.019,3.019,0,0,1-.035,1.041,2.114,2.114,0,0,0-.147.575.629.629,0,0,0,.685.591,1.17,1.17,0,0,0,.649-.433A5.327,5.327,0,0,0,40.3,60.968a1.217,1.217,0,0,0-.527-1.278c-1.567-.693-2.283,1.289-2.2,2.451Z" transform="translate(-27.629 -45.944)" fill="#fed35b"/><path d="M29.524,62.979a2.538,2.538,0,0,1-.461-.332,1.575,1.575,0,0,0-1.006-.178,1.277,1.277,0,0,0-.509.118,1.693,1.693,0,0,0-.6.82,4.777,4.777,0,0,1-1.017,1.361c-.161.15-.337.414-.167.554a.36.36,0,0,0,.186.063,4.074,4.074,0,0,0,1.88-.2,4.526,4.526,0,0,1,1.56-.458,1.606,1.606,0,0,0,.4-.005,1.036,1.036,0,0,0,.392-.226,1.45,1.45,0,0,0,.683-.991c.458-1.738-.521-.225-1.344-.529Z" transform="translate(-25.695 -46.425)" fill="#fed35b"/><path d="M27.341,70.511c-.236.088-.515.05-.727.185a.658.658,0,0,0-.047.97,1.209,1.209,0,0,0,1.03.287,10.773,10.773,0,0,0,1.075-.27,24.8,24.8,0,0,0,2.81-.376,4.38,4.38,0,0,0,1.2-.708c.86-.672.789-1.669-.366-2.01-.594-.175-.85.25-1.288.572-.724.532-1.023.35-1.842.215-1.119-.185-.969.81-1.842,1.136Z" transform="translate(-25.807 -47.432)" fill="#fed35b"/><path d="M53.491,80.091c.013-.087.126-.111.215-.113a16.486,16.486,0,0,1,2.723.151,1.208,1.208,0,0,0,.8-.066c.145-.089.244-.238.388-.329a.989.989,0,0,1,.456-.126,2.823,2.823,0,0,1,1.343.223.477.477,0,0,1,.271.22.414.414,0,0,1,.013.232,1.442,1.442,0,0,1-1.133,1.047,5.258,5.258,0,0,1-1.626.017,14.46,14.46,0,0,0-2.029-.008,8.743,8.743,0,0,1-1.443.04,2.1,2.1,0,0,1-1.3-.555,7.82,7.82,0,0,0,1.251-.93.764.764,0,0,1,.241-.17.728.728,0,0,1,.254-.029l1.066.006" transform="translate(-30.071 -49.259)" fill="#fed35b"/><path d="M42.706,78.916l-1.192.487a1.164,1.164,0,0,1-.979.091.69.69,0,0,0-.21-.1.51.51,0,0,0-.29.084,1.439,1.439,0,0,1-.788.132c-.27-.032-.647-.08-.719.183-.06.22.191.389.4.479a1.571,1.571,0,0,0,1,.187c.253-.067.456-.256.7-.346a2.123,2.123,0,0,1,.816-.064c.46.017,1.843.147,2.2-.181C44.148,79.4,43.07,79.207,42.706,78.916Z" transform="translate(-27.815 -49.146)" fill="#fed35b"/></g></g></svg>