<svg xmlns="http://www.w3.org/2000/svg" width="54.759" height="62.121" viewBox="0 0 54.759 62.121"><g transform="translate(-17.176 0)"><path d="M63.776,271.768a3.882,3.882,0,0,1-3.883,3.881H21.059a3.884,3.884,0,0,1-3.883-3.881Z" transform="translate(0 -213.528)" fill="#ccd0d2"/><path d="M78.442,128.529c0-5.938-5.908-6.868-9.794-6.92v-3.872H25.457v11.65c0,11.159,6.689,20.32,17.718,21.275.631.056,3.233.084,3.878.084.662,0,3.277-.029,3.924-.087a18.414,18.414,0,0,0,15.434-10.852C74.076,137.558,78.442,134.921,78.442,128.529Zm-10.769,7.893a25.634,25.634,0,0,0,.975-7.037v-3.992c2.9-.056,6.367.12,6.367,3.045Q75.017,133.485,67.673,136.422Z" transform="translate(-6.506 -92.506)" fill="#ccd0d2"/><g transform="translate(28.826 25.23)"><path d="M79.158,127.439H77.364v-9.71H75.422v9.71H73.389l-1.85,3.883v7.767h9.708v-7.767Z" transform="translate(-71.539 -117.729)" fill="#868686"/></g><g transform="translate(26.883 0)"><g transform="translate(0 0)"><path d="M86.274,8.193c-2.7-3.546-.615-5.388.066-5.992A1.167,1.167,0,0,0,86.305.366,1.707,1.707,0,0,0,84.16.4c-2.87,2.54-3.021,5.808-.429,9.213a3.808,3.808,0,0,1-.668,5.635,1.167,1.167,0,0,0-.013,1.835,1.637,1.637,0,0,0,1.08.386A1.659,1.659,0,0,0,85.2,17.09,6.137,6.137,0,0,0,86.274,8.193ZM66.925,2.2A1.17,1.17,0,0,0,66.89.366a1.712,1.712,0,0,0-2.149.027c-2.868,2.54-3.019,5.808-.427,9.213a3.808,3.808,0,0,1-.668,5.635,1.17,1.17,0,0,0-.012,1.837,1.635,1.635,0,0,0,1.078.386,1.659,1.659,0,0,0,1.068-.375,6.137,6.137,0,0,0,1.077-8.9C64.16,4.648,66.24,2.8,66.925,2.2Zm9.708,0A1.17,1.17,0,0,0,76.6.366,1.709,1.709,0,0,0,74.451.4c-2.868,2.54-3.019,5.808-.427,9.213a3.808,3.808,0,0,1-.668,5.635,1.167,1.167,0,0,0-.013,1.835,1.64,1.64,0,0,0,1.08.386,1.659,1.659,0,0,0,1.068-.375,6.138,6.138,0,0,0,1.078-8.9C73.869,4.648,75.948,2.8,76.634,2.2Z" transform="translate(-62.474 0)" fill="#ccd0d2"/></g></g><g transform="translate(18.951 25.229)"><path d="M52.918,149.681c-.645.058-3.262.087-3.924.087-.645,0-3.244-.027-3.878-.084C34.086,148.73,27.4,139.569,27.4,128.41V117.729H25.457v11.65c0,11.159,6.689,20.32,17.718,21.275.631.056,3.233.084,3.878.084.662,0,3.277-.029,3.924-.087a18.834,18.834,0,0,0,7.883-2.481A19.236,19.236,0,0,1,52.918,149.681Z" transform="translate(-25.457 -117.729)" fill="#c2c5c7"/></g></g></svg>